<svg width="100" height="100" viewBox="0 0 100 100" fill="none" xmlns="http://www.w3.org/2000/svg">
<rect x="38.4375" y="15.0625" width="5.0625" height="5.0625" fill="#7D7D7D"/>
<rect x="35.0625" y="20.125" width="5.0625" height="5.0625" fill="#7D7D7D"/>
<rect x="35.0625" y="25.1875" width="5.0625" height="5.0625" fill="#7D7D7D"/>
<rect x="35.0625" y="30.25" width="5.0625" height="5.0625" fill="#7D7D7D"/>
<rect x="35.0625" y="35.3125" width="5.0625" height="5.0625" fill="#7D7D7D"/>
<rect x="35.0625" y="40.375" width="5.0625" height="5.0625" fill="#7D7D7D"/>
<rect x="35.0625" y="45.4375" width="5.0625" height="5.0625" fill="#7D7D7D"/>
<rect x="35.0625" y="50.5" width="5.0625" height="5.0625" fill="#7D7D7D"/>
<rect x="35.0625" y="55.5625" width="5.0625" height="5.0625" fill="#7D7D7D"/>
<rect x="35.0625" y="60.625" width="5.0625" height="5.0625" fill="#7D7D7D"/>
<rect x="35.0625" y="65.6875" width="5.0625" height="5.0625" fill="#7D7D7D"/>
<rect x="35.0625" y="70.75" width="5.0625" height="5.0625" fill="#7D7D7D"/>
<rect x="35.0625" y="75.8125" width="5.0625" height="5.0625" fill="#7D7D7D"/>
<rect x="36.75" y="80.875" width="5.0625" height="5.0625" fill="#7D7D7D"/>
<rect x="43.5" y="15.0625" width="5.0625" height="5.0625" fill="#7D7D7D"/>
<rect x="40.125" y="20.125" width="5.0625" height="5.0625" fill="#7D7D7D"/>
<rect x="40.125" y="25.1875" width="5.0625" height="5.0625" fill="#7D7D7D"/>
<rect x="40.125" y="30.25" width="5.0625" height="5.0625" fill="#7D7D7D"/>
<rect x="40.125" y="35.3125" width="5.0625" height="5.0625" fill="#7D7D7D"/>
<rect x="40.125" y="40.375" width="5.0625" height="5.0625" fill="#7D7D7D"/>
<rect x="40.125" y="45.4375" width="5.0625" height="5.0625" fill="#7D7D7D"/>
<rect x="40.125" y="50.5" width="5.0625" height="5.0625" fill="#7D7D7D"/>
<rect x="40.125" y="55.5625" width="5.0625" height="5.0625" fill="#7D7D7D"/>
<rect x="40.125" y="60.625" width="5.0625" height="5.0625" fill="#7D7D7D"/>
<rect x="40.125" y="65.6875" width="5.0625" height="5.0625" fill="#7D7D7D"/>
<rect x="40.125" y="70.75" width="5.0625" height="5.0625" fill="#7D7D7D"/>
<rect x="40.125" y="75.8125" width="5.0625" height="5.0625" fill="#7D7D7D"/>
<rect x="41.8125" y="80.875" width="5.0625" height="5.0625" fill="#7D7D7D"/>
<rect x="48.5625" y="15.0625" width="5.0625" height="5.0625" fill="#7D7D7D"/>
<rect x="45.1875" y="20.125" width="5.0625" height="5.0625" fill="#7D7D7D"/>
<rect x="45.1875" y="25.1875" width="5.0625" height="5.0625" fill="#7D7D7D"/>
<rect x="45.1875" y="30.25" width="5.0625" height="5.0625" fill="#7D7D7D"/>
<rect x="45.1875" y="35.3125" width="5.0625" height="5.0625" fill="#7D7D7D"/>
<rect x="45.1875" y="40.375" width="5.0625" height="5.0625" fill="#7D7D7D"/>
<rect x="45.1875" y="45.4375" width="5.0625" height="5.0625" fill="#7D7D7D"/>
<rect x="45.1875" y="50.5" width="5.0625" height="5.0625" fill="#7D7D7D"/>
<rect x="45.1875" y="55.5625" width="5.0625" height="5.0625" fill="#7D7D7D"/>
<rect x="45.1875" y="60.625" width="5.0625" height="5.0625" fill="#7D7D7D"/>
<rect x="45.1875" y="65.6875" width="5.0625" height="5.0625" fill="#7D7D7D"/>
<rect x="45.1875" y="70.75" width="5.0625" height="5.0625" fill="#7D7D7D"/>
<rect x="45.1875" y="75.8125" width="5.0625" height="5.0625" fill="#7D7D7D"/>
<rect x="46.875" y="80.875" width="5.0625" height="5.0625" fill="#7D7D7D"/>
<rect x="53.625" y="15.0625" width="5.0625" height="5.0625" fill="#7D7D7D"/>
<rect x="50.25" y="20.125" width="5.0625" height="5.0625" fill="#7D7D7D"/>
<rect x="50.25" y="25.1875" width="5.0625" height="5.0625" fill="#7D7D7D"/>
<rect x="50.25" y="30.25" width="5.0625" height="5.0625" fill="#7D7D7D"/>
<rect x="50.25" y="35.3125" width="5.0625" height="5.0625" fill="#7D7D7D"/>
<rect x="50.25" y="40.375" width="5.0625" height="5.0625" fill="#7D7D7D"/>
<rect x="50.25" y="45.4375" width="5.0625" height="5.0625" fill="#7D7D7D"/>
<rect x="50.25" y="50.5" width="5.0625" height="5.0625" fill="#7D7D7D"/>
<rect x="50.25" y="55.5625" width="5.0625" height="5.0625" fill="#7D7D7D"/>
<rect x="50.25" y="60.625" width="5.0625" height="5.0625" fill="#7D7D7D"/>
<rect x="50.25" y="65.6875" width="5.0625" height="5.0625" fill="#7D7D7D"/>
<rect x="50.25" y="70.75" width="5.0625" height="5.0625" fill="#7D7D7D"/>
<rect x="50.25" y="75.8125" width="5.0625" height="5.0625" fill="#7D7D7D"/>
<rect x="51.9375" y="80.875" width="5.0625" height="5.0625" fill="#7D7D7D"/>
<rect x="58.6875" y="15.0625" width="5.0625" height="5.0625" fill="#7D7D7D"/>
<rect x="55.3125" y="20.125" width="5.0625" height="5.0625" fill="#7D7D7D"/>
<rect x="60.375" y="20.125" width="5.0625" height="5.0625" fill="#7D7D7D"/>
<rect x="55.3125" y="25.1875" width="5.0625" height="5.0625" fill="#7D7D7D"/>
<rect x="60.375" y="25.1875" width="5.0625" height="5.0625" fill="#7D7D7D"/>
<rect x="55.3125" y="30.25" width="5.0625" height="5.0625" fill="#7D7D7D"/>
<rect x="60.375" y="30.25" width="5.0625" height="5.0625" fill="#7D7D7D"/>
<rect x="55.3125" y="35.3125" width="5.0625" height="5.0625" fill="#7D7D7D"/>
<rect x="60.375" y="35.3125" width="5.0625" height="5.0625" fill="#7D7D7D"/>
<rect x="55.3125" y="40.375" width="5.0625" height="5.0625" fill="#7D7D7D"/>
<rect x="60.375" y="40.375" width="5.0625" height="5.0625" fill="#7D7D7D"/>
<rect x="55.3125" y="45.4375" width="5.0625" height="5.0625" fill="#7D7D7D"/>
<rect x="60.375" y="45.4375" width="5.0625" height="5.0625" fill="#7D7D7D"/>
<rect x="55.3125" y="50.5" width="5.0625" height="5.0625" fill="#7D7D7D"/>
<rect x="60.375" y="50.5" width="5.0625" height="5.0625" fill="#7D7D7D"/>
<rect x="55.3125" y="55.5625" width="5.0625" height="5.0625" fill="#7D7D7D"/>
<rect x="60.375" y="55.5625" width="5.0625" height="5.0625" fill="#7D7D7D"/>
<rect x="55.3125" y="60.625" width="5.0625" height="5.0625" fill="#7D7D7D"/>
<rect x="60.375" y="60.625" width="5.0625" height="5.0625" fill="#7D7D7D"/>
<rect x="55.3125" y="65.6875" width="5.0625" height="5.0625" fill="#7D7D7D"/>
<rect x="60.375" y="65.6875" width="5.0625" height="5.0625" fill="#7D7D7D"/>
<rect x="55.3125" y="70.75" width="5.0625" height="5.0625" fill="#7D7D7D"/>
<rect x="60.375" y="70.75" width="5.0625" height="5.0625" fill="#7D7D7D"/>
<rect x="55.3125" y="75.8125" width="5.0625" height="5.0625" fill="#7D7D7D"/>
<rect x="60.375" y="75.8125" width="5.0625" height="5.0625" fill="#7D7D7D"/>
<rect x="57" y="80.875" width="5.0625" height="5.0625" fill="#7D7D7D"/>
<rect x="35.0625" y="10" width="5.0625" height="5.0625" fill="#111111"/>
<rect x="30" y="10" width="5.0625" height="5.0625" fill="#111111"/>
<rect x="65.4375" y="10" width="5.0625" height="5.0625" fill="#111111"/>
<rect x="65.4375" y="85.9375" width="5.0625" height="5.0625" fill="#111111"/>
<rect x="30" y="85.9375" width="5.0625" height="5.0625" fill="#111111"/>
<rect x="35.0625" y="85.9375" width="5.0625" height="5.0625" fill="#111111"/>
<rect x="40.125" y="10" width="5.0625" height="5.0625" fill="#111111"/>
<rect x="40.125" y="85.9375" width="5.0625" height="5.0625" fill="#111111"/>
<rect x="45.1875" y="10" width="5.0625" height="5.0625" fill="#111111"/>
<rect x="45.1875" y="85.9375" width="5.0625" height="5.0625" fill="#111111"/>
<rect x="50.25" y="10" width="5.0625" height="5.0625" fill="#111111"/>
<rect x="50.25" y="85.9375" width="5.0625" height="5.0625" fill="#111111"/>
<rect x="55.3125" y="10" width="5.0625" height="5.0625" fill="#111111"/>
<rect x="55.3125" y="85.9375" width="5.0625" height="5.0625" fill="#111111"/>
<rect x="60.375" y="10" width="5.0625" height="5.0625" fill="#111111"/>
<rect x="60.375" y="85.9375" width="5.0625" height="5.0625" fill="#111111"/>
<rect x="62.0625" y="15.0625" width="5.0625" height="5.0625" fill="#111111"/>
<rect x="65.4375" y="20.125" width="5.0625" height="5.0625" fill="#111111"/>
<rect x="30" y="20.125" width="5.0625" height="5.0625" fill="#111111"/>
<rect x="65.4375" y="40.375" width="5.0625" height="5.0625" fill="#111111"/>
<rect x="30" y="40.375" width="5.0625" height="5.0625" fill="#111111"/>
<rect x="65.4375" y="60.625" width="5.0625" height="5.0625" fill="#111111"/>
<rect x="30" y="60.625" width="5.0625" height="5.0625" fill="#111111"/>
<rect x="65.4375" y="30.25" width="5.0625" height="5.0625" fill="#111111"/>
<rect x="30" y="30.25" width="5.0625" height="5.0625" fill="#111111"/>
<rect x="65.4375" y="50.5" width="5.0625" height="5.0625" fill="#111111"/>
<rect x="30" y="50.5" width="5.0625" height="5.0625" fill="#111111"/>
<rect x="65.4375" y="70.75" width="5.0625" height="5.0625" fill="#111111"/>
<rect x="30" y="70.75" width="5.0625" height="5.0625" fill="#111111"/>
<rect x="65.4375" y="25.1875" width="5.0625" height="5.0625" fill="#111111"/>
<rect x="30" y="25.1875" width="5.0625" height="5.0625" fill="#111111"/>
<rect x="65.4375" y="45.4375" width="5.0625" height="5.0625" fill="#111111"/>
<rect x="30" y="45.4375" width="5.0625" height="5.0625" fill="#111111"/>
<rect x="65.4375" y="65.6875" width="5.0625" height="5.0625" fill="#111111"/>
<rect x="30" y="65.6875" width="5.0625" height="5.0625" fill="#111111"/>
<rect x="65.4375" y="35.3125" width="5.0625" height="5.0625" fill="#111111"/>
<rect x="30" y="35.3125" width="5.0625" height="5.0625" fill="#111111"/>
<rect x="65.4375" y="55.5625" width="5.0625" height="5.0625" fill="#111111"/>
<rect x="30" y="55.5625" width="5.0625" height="5.0625" fill="#111111"/>
<rect x="65.4375" y="75.8125" width="5.0625" height="5.0625" fill="#111111"/>
<rect x="30" y="75.8125" width="5.0625" height="5.0625" fill="#111111"/>
<rect x="33.375" y="80.875" width="5.0625" height="5.0625" fill="#111111"/>
<rect x="62.0625" y="80.875" width="5.0625" height="5.0625" fill="#111111"/>
<rect x="33.375" y="15.0625" width="5.0625" height="5.0625" fill="#111111"/>
<rect x="38.4375" y="21.8125" width="1.6875" height="1.6875" fill="white"/>
<rect x="38.4375" y="23.5" width="1.6875" height="1.6875" fill="white"/>
<rect x="38.4375" y="25.1875" width="1.6875" height="1.6875" fill="white"/>
<rect x="38.4375" y="26.875" width="1.6875" height="1.6875" fill="white"/>
<rect x="38.4375" y="28.5625" width="1.6875" height="1.6875" fill="white"/>
<rect x="38.4375" y="30.25" width="1.6875" height="1.6875" fill="white"/>
<rect x="38.4375" y="31.9375" width="1.6875" height="1.6875" fill="white"/>
<path d="M45.4345 83.0152L45.4345 81.7805H46.6692L46.6692 80.5457H47.904V81.7805H55.3125V83.0152H45.4345ZM47.904 80.5457V79.311H49.1387V80.5457H47.904ZM49.1387 79.311V78.0762H50.3735V79.311H49.1387ZM49.1387 78.0762H47.904L47.904 76.8415H49.1387L49.1387 78.0762ZM47.904 76.8415H46.6692L46.6692 75.6067H45.4345L45.4345 74.3719H55.3125V75.6067H47.904V76.8415Z" fill="#00FF0A"/>
<path d="M45.4345 70.6677L45.4345 65.7287H46.6692L46.6692 70.6677H45.4345ZM46.6692 65.7287L46.6692 64.4939H54.0777V65.7287H46.6692ZM54.0777 65.7287H55.3125L55.3125 70.6677H54.0777V65.7287ZM54.0777 70.6677V71.9024H46.6692L46.6692 70.6677H54.0777Z" fill="#00FF0A"/>
<path d="M45.4345 62.0244L45.4345 60.7896H46.6692L46.6692 59.5549H47.904V60.7896H55.3125V62.0244H45.4345ZM47.904 59.5549L47.904 58.3201H49.1387L49.1387 59.5549H47.904ZM49.1387 58.3201V57.0854H50.3735V58.3201H49.1387ZM50.3735 57.0854V55.8506H45.4344L45.4344 54.6158H55.3125V55.8506H51.6082V57.0854H50.3735Z" fill="#00FF0A"/>
<path d="M45.4344 50.9116L45.4344 45.9726H46.6692L46.6692 50.9116H45.4344ZM46.6692 50.9116H49.1387V52.1463H46.6692L46.6692 50.9116ZM49.1387 50.9116L49.1387 48.4421H50.3735V50.9116H49.1387ZM50.3735 48.4421V47.2073H51.6082V48.4421H50.3735ZM51.6082 47.2073V45.9726H54.0777V47.2073H51.6082ZM54.0777 47.2073H55.3125L55.3125 52.1463H54.0777V47.2073Z" fill="#00FF0A"/>
<path d="M45.4344 43.503L45.4344 37.3293H46.6692L46.6692 39.7988H55.3125V41.0335H46.6692L46.6692 43.503H45.4344Z" fill="#00FF0A"/>
<path d="M45.4344 34.8598L45.4344 28.686H46.6692L46.6692 33.625H49.1387L49.1387 29.9207H50.3735V33.625L54.0777 33.625V28.686H55.3125L55.3125 34.8598H45.4344Z" fill="#00FF0A"/>
<path d="M45.4344 26.2165L45.4344 20.0427H46.6692L46.6692 24.9817L50.3735 24.9817L50.3735 20.0427H51.6082V21.2774H52.843V22.5122H51.6082V24.9817H55.3125V26.2165L45.4344 26.2165ZM46.6692 20.0427L46.6692 18.8079L50.3735 18.8079V20.0427L46.6692 20.0427ZM52.843 21.2774V20.0427H54.0777V21.2774L52.843 21.2774ZM54.0777 20.0427V18.8079L55.3125 18.8079V20.0427L54.0777 20.0427Z" fill="#00FF0A"/>
</svg>
