<svg width="100" height="100" viewBox="0 0 100 100" fill="none" xmlns="http://www.w3.org/2000/svg">
<rect x="30.7619" y="31.3571" width="4.78571" height="4.78571" fill="#111111"/>
<rect x="35.5476" y="31.3571" width="4.78571" height="4.78571" fill="#111111"/>
<rect x="40.3333" y="31.3571" width="4.78571" height="4.78571" fill="#111111"/>
<rect x="48.3095" y="31.3571" width="4.78571" height="4.78571" fill="#111111"/>
<rect x="53.0952" y="31.3571" width="4.78571" height="4.78571" fill="#111111"/>
<rect x="57.881" y="31.3571" width="4.78571" height="4.78571" fill="#111111"/>
<rect x="62.6667" y="31.3571" width="4.78571" height="4.78571" fill="#111111"/>
<rect x="67.4524" y="31.3571" width="4.78571" height="4.78571" fill="#111111"/>
<rect x="72.2381" y="31.3571" width="4.78571" height="4.78571" fill="#111111"/>
<rect x="77.0238" y="26.5714" width="4.78571" height="4.78571" fill="#111111"/>
<rect x="72.2381" y="21.7857" width="4.78571" height="4.78571" fill="#111111"/>
<rect x="67.4524" y="21.7857" width="4.78571" height="4.78571" fill="#111111"/>
<rect x="62.6667" y="17" width="4.78571" height="4.78571" fill="#111111"/>
<rect x="57.881" y="17" width="4.78571" height="4.78571" fill="#111111"/>
<rect x="53.0952" y="21.7857" width="4.78571" height="4.78571" fill="#111111"/>
<rect x="48.3095" y="26.5714" width="4.78571" height="4.78571" fill="#111111"/>
<rect x="43.5238" y="21.7857" width="4.78571" height="4.78571" fill="#111111"/>
<rect x="25.9762" y="36.1429" width="4.78571" height="4.78571" fill="#111111"/>
<rect x="22.7857" y="40.9286" width="4.78571" height="4.78571" fill="#111111"/>
<rect x="18" y="45.7143" width="4.78571" height="4.78571" fill="#111111"/>
<rect x="18" y="50.5" width="4.78571" height="4.78571" fill="#111111"/>
<rect x="18" y="55.2857" width="4.78571" height="4.78571" fill="#111111"/>
<rect x="18" y="60.0714" width="4.78571" height="4.78571" fill="#111111"/>
<rect x="22.7857" y="64.8571" width="4.78571" height="4.78571" fill="#111111"/>
<rect x="27.5714" y="69.6429" width="4.78571" height="4.78571" fill="#111111"/>
<rect x="32.3572" y="74.4286" width="4.78571" height="4.78571" fill="#111111"/>
<rect x="37.1429" y="79.2143" width="4.78571" height="4.78571" fill="#111111"/>
<rect x="41.9286" y="79.2143" width="4.78571" height="4.78571" fill="#111111"/>
<rect x="46.7143" y="79.2143" width="4.78571" height="4.78571" fill="#111111"/>
<rect x="51.5" y="79.2143" width="4.78571" height="4.78571" fill="#111111"/>
<rect x="56.2857" y="79.2143" width="4.78571" height="4.78571" fill="#111111"/>
<rect x="61.0714" y="74.4286" width="4.78571" height="4.78571" fill="#111111"/>
<rect x="65.8572" y="74.4286" width="4.78571" height="4.78571" fill="#111111"/>
<rect x="70.6429" y="69.6429" width="4.78571" height="4.78571" fill="#111111"/>
<rect x="70.6429" y="64.8571" width="4.78571" height="4.78571" fill="#111111"/>
<rect x="75.4286" y="60.0714" width="4.78571" height="4.78571" fill="#111111"/>
<rect x="75.4286" y="55.2857" width="4.78571" height="4.78571" fill="#111111"/>
<rect x="75.4286" y="50.5" width="4.78571" height="4.78571" fill="#111111"/>
<rect x="75.4286" y="45.7143" width="4.78571" height="4.78571" fill="#111111"/>
<rect x="70.6429" y="40.9286" width="4.78571" height="4.78571" fill="#111111"/>
<rect x="69.0476" y="36.1429" width="4.78571" height="4.78571" fill="#111111"/>
<rect x="30.7619" y="36.1429" width="4.78571" height="4.78571" fill="#CF3939"/>
<rect x="35.5476" y="36.1429" width="4.78571" height="4.78571" fill="#CF3939"/>
<rect x="64.2619" y="36.1429" width="4.78571" height="4.78571" fill="#CF3939"/>
<rect x="59.4762" y="36.1429" width="4.78571" height="4.78571" fill="#CF3939"/>
<rect x="54.6905" y="36.1429" width="4.78571" height="4.78571" fill="#CF3939"/>
<rect x="65.8571" y="40.9286" width="4.78571" height="4.78571" fill="#CF3939"/>
<rect x="65.8571" y="45.7143" width="4.78571" height="4.78571" fill="#CF3939"/>
<rect x="65.8571" y="50.5" width="4.78571" height="4.78571" fill="#CF3939"/>
<rect x="65.8571" y="55.2857" width="4.78571" height="4.78571" fill="#CF3939"/>
<rect x="65.8571" y="60.0714" width="4.78571" height="4.78571" fill="#CF3939"/>
<rect x="61.0714" y="64.8571" width="4.78571" height="4.78571" fill="#CF3939"/>
<rect x="61.0714" y="69.6429" width="4.78571" height="4.78571" fill="#CF3939"/>
<rect x="70.6428" y="45.7143" width="4.78571" height="4.78571" fill="#CF3939"/>
<rect x="70.6428" y="50.5" width="4.78571" height="4.78571" fill="#CF3939"/>
<rect x="70.6428" y="55.2857" width="4.78571" height="4.78571" fill="#CF3939"/>
<rect x="70.6429" y="60.0714" width="4.78571" height="4.78571" fill="#CF3939"/>
<rect x="65.8571" y="64.8571" width="4.78571" height="4.78571" fill="#CF3939"/>
<rect x="65.8571" y="69.6429" width="4.78571" height="4.78571" fill="#CF3939"/>
<rect x="56.2857" y="40.9286" width="4.78571" height="4.78571" fill="#CF3939"/>
<rect x="56.2857" y="45.7143" width="4.78571" height="4.78571" fill="#CF3939"/>
<rect x="56.2857" y="50.5" width="4.78571" height="4.78571" fill="#CF3939"/>
<rect x="56.2857" y="55.2857" width="4.78571" height="4.78571" fill="#CF3939"/>
<rect x="56.2857" y="60.0714" width="4.78571" height="4.78571" fill="#CF3939"/>
<rect x="51.5" y="64.8571" width="4.78571" height="4.78571" fill="#CF3939"/>
<rect x="51.5" y="69.6429" width="4.78571" height="4.78571" fill="#CF3939"/>
<rect x="51.5" y="74.4286" width="4.78571" height="4.78571" fill="#CF3939"/>
<rect x="46.7143" y="40.9286" width="4.78571" height="4.78571" fill="#CF3939"/>
<rect x="46.7143" y="45.7143" width="4.78571" height="4.78571" fill="#CF3939"/>
<rect x="46.7143" y="50.5" width="4.78571" height="4.78571" fill="#CF3939"/>
<rect x="46.7143" y="55.2857" width="4.78571" height="4.78571" fill="#CF3939"/>
<rect x="46.7143" y="60.0714" width="4.78571" height="4.78571" fill="#CF3939"/>
<rect x="41.9286" y="64.8571" width="4.78571" height="4.78571" fill="#CF3939"/>
<rect x="41.9286" y="69.6429" width="4.78571" height="4.78571" fill="#CF3939"/>
<rect x="41.9286" y="74.4286" width="4.78571" height="4.78571" fill="#CF3939"/>
<rect x="37.1428" y="40.9286" width="4.78571" height="4.78571" fill="#CF3939"/>
<rect x="37.1428" y="45.7143" width="4.78571" height="4.78571" fill="#CF3939"/>
<rect x="37.1428" y="50.5" width="4.78571" height="4.78571" fill="#CF3939"/>
<rect x="37.1428" y="55.2857" width="4.78571" height="4.78571" fill="#CF3939"/>
<rect x="37.1428" y="60.0714" width="4.78571" height="4.78571" fill="#CF3939"/>
<rect x="32.3571" y="64.8571" width="4.78571" height="4.78571" fill="#CF3939"/>
<rect x="32.3571" y="69.6429" width="4.78571" height="4.78571" fill="#CF3939"/>
<rect x="61.0714" y="40.9286" width="4.78571" height="4.78571" fill="#CF3939"/>
<rect x="61.0714" y="45.7143" width="4.78571" height="4.78571" fill="#CF3939"/>
<rect x="61.0714" y="50.5" width="4.78571" height="4.78571" fill="#CF3939"/>
<rect x="61.0714" y="55.2857" width="4.78571" height="4.78571" fill="#CF3939"/>
<rect x="61.0714" y="60.0714" width="4.78571" height="4.78571" fill="#CF3939"/>
<rect x="56.2857" y="64.8571" width="4.78571" height="4.78571" fill="#CF3939"/>
<rect x="56.2857" y="69.6429" width="4.78571" height="4.78571" fill="#CF3939"/>
<rect x="56.2857" y="74.4286" width="4.78571" height="4.78571" fill="#CF3939"/>
<rect x="51.5" y="40.9286" width="4.78571" height="4.78571" fill="#CF3939"/>
<rect x="51.5" y="45.7143" width="4.78571" height="4.78571" fill="#CF3939"/>
<rect x="51.5" y="50.5" width="4.78571" height="4.78571" fill="#CF3939"/>
<rect x="51.5" y="55.2857" width="4.78571" height="4.78571" fill="#CF3939"/>
<rect x="51.5" y="60.0714" width="4.78571" height="4.78571" fill="#CF3939"/>
<rect x="46.7143" y="64.8571" width="4.78571" height="4.78571" fill="#CF3939"/>
<rect x="46.7143" y="69.6429" width="4.78571" height="4.78571" fill="#CF3939"/>
<rect x="46.7143" y="74.4286" width="4.78571" height="4.78571" fill="#CF3939"/>
<rect x="41.9286" y="40.9286" width="4.78571" height="4.78571" fill="#CF3939"/>
<rect x="41.9286" y="45.7143" width="4.78571" height="4.78571" fill="#CF3939"/>
<rect x="41.9286" y="50.5" width="4.78571" height="4.78571" fill="#CF3939"/>
<rect x="41.9286" y="55.2857" width="4.78571" height="4.78571" fill="#CF3939"/>
<rect x="41.9286" y="60.0714" width="4.78571" height="4.78571" fill="#CF3939"/>
<rect x="37.1428" y="64.8571" width="4.78571" height="4.78571" fill="#CF3939"/>
<rect x="37.1428" y="69.6429" width="4.78571" height="4.78571" fill="#CF3939"/>
<rect x="37.1428" y="74.4286" width="4.78571" height="4.78571" fill="#CF3939"/>
<rect x="27.5714" y="40.9286" width="4.78571" height="4.78571" fill="#CF3939"/>
<rect x="22.7857" y="45.7143" width="4.78571" height="4.78571" fill="#CF3939"/>
<rect x="22.7857" y="50.5" width="4.78571" height="4.78571" fill="#CF3939"/>
<rect x="22.7857" y="55.2857" width="4.78571" height="4.78571" fill="#CF3939"/>
<rect x="22.7857" y="60.0714" width="4.78571" height="4.78571" fill="#CF3939"/>
<rect x="27.5714" y="50.5" width="4.78571" height="4.78571" fill="#CF3939"/>
<rect x="32.3571" y="45.7143" width="4.78571" height="4.78571" fill="#CF3939"/>
<rect x="32.3571" y="50.5" width="4.78571" height="4.78571" fill="#CF3939"/>
<rect x="32.3571" y="55.2857" width="4.78571" height="4.78571" fill="#CF3939"/>
<rect x="32.3571" y="60.0714" width="4.78571" height="4.78571" fill="#CF3939"/>
<rect x="27.5714" y="60.0714" width="4.78571" height="4.78571" fill="#CF3939"/>
<rect x="27.5714" y="55.2857" width="4.78571" height="4.78571" fill="#CF3939"/>
<rect x="27.5714" y="64.8571" width="4.78571" height="4.78571" fill="#CF3939"/>
<rect x="40.3333" y="36.1429" width="4.78571" height="4.78571" fill="#726355"/>
<rect x="45.1191" y="36.1429" width="4.78571" height="4.78571" fill="#726355"/>
<rect x="49.9048" y="36.1429" width="4.78571" height="4.78571" fill="#726355"/>
<rect x="53.0952" y="26.5714" width="4.78571" height="4.78571" fill="#79DB7D"/>
<rect x="57.881" y="26.5714" width="4.78571" height="4.78571" fill="#79DB7D"/>
<rect x="62.6667" y="26.5714" width="4.78571" height="4.78571" fill="#79DB7D"/>
<rect x="67.4524" y="26.5714" width="4.78571" height="4.78571" fill="#79DB7D"/>
<rect x="72.2381" y="26.5714" width="4.78571" height="4.78571" fill="#79DB7D"/>
<rect x="62.6667" y="21.7857" width="4.78571" height="4.78571" fill="#79DB7D"/>
<rect x="57.881" y="21.7857" width="4.78571" height="4.78571" fill="#79DB7D"/>
<rect x="32.3571" y="40.9286" width="4.78571" height="4.78571" fill="white"/>
<rect x="27.5714" y="45.7143" width="4.78571" height="4.78571" fill="white"/>
</svg>
