<svg width="100" height="100" viewBox="0 0 100 100" fill="none" xmlns="http://www.w3.org/2000/svg">
<rect x="32.8095" y="16" width="4.85714" height="4.85714" fill="#111111"/>
<rect x="27.9524" y="20.8571" width="4.85714" height="4.85714" fill="#111111"/>
<rect x="23.0952" y="20.8571" width="4.85714" height="4.85714" fill="#111111"/>
<rect x="18.2381" y="25.7143" width="4.85714" height="4.85714" fill="#111111"/>
<rect x="15" y="30.5714" width="4.85714" height="4.85714" fill="#111111"/>
<rect x="15" y="35.4286" width="4.85714" height="4.85714" fill="#111111"/>
<rect x="19.8571" y="40.2857" width="4.85714" height="4.85714" fill="#111111"/>
<rect x="37.6667" y="16" width="4.85714" height="4.85714" fill="#111111"/>
<rect x="42.5238" y="16" width="4.85714" height="4.85714" fill="#111111"/>
<rect x="47.381" y="16" width="4.85714" height="4.85714" fill="#111111"/>
<rect x="52.2381" y="16" width="4.85714" height="4.85714" fill="#111111"/>
<rect x="57.0952" y="16" width="4.85714" height="4.85714" fill="#111111"/>
<rect x="61.9524" y="16" width="4.85714" height="4.85714" fill="#111111"/>
<rect x="66.8095" y="20.8571" width="4.85714" height="4.85714" fill="#111111"/>
<rect x="71.6667" y="20.8571" width="4.85714" height="4.85714" fill="#111111"/>
<rect x="76.5238" y="25.7143" width="4.85714" height="4.85714" fill="#111111"/>
<rect x="78.1429" y="30.5714" width="4.85714" height="4.85714" fill="#111111"/>
<rect x="78.1429" y="35.4286" width="4.85714" height="4.85714" fill="#111111"/>
<rect x="73.2857" y="40.2857" width="4.85714" height="4.85714" fill="#111111"/>
<rect x="15" y="45.1429" width="4.85714" height="4.85714" fill="#111111"/>
<rect x="15" y="50" width="4.85714" height="4.85714" fill="#111111"/>
<rect x="16.619" y="59.7143" width="4.85714" height="4.85714" fill="#111111"/>
<rect x="16.619" y="64.5714" width="4.85714" height="4.85714" fill="#111111"/>
<rect x="19.8571" y="69.4286" width="4.85714" height="4.85714" fill="#111111"/>
<rect x="19.8571" y="74.2857" width="4.85714" height="4.85714" fill="#111111"/>
<rect x="24.7143" y="79.1429" width="4.85714" height="4.85714" fill="#111111"/>
<rect x="29.5714" y="79.1429" width="4.85714" height="4.85714" fill="#111111"/>
<rect x="34.4286" y="79.1429" width="4.85714" height="4.85714" fill="#111111"/>
<rect x="39.2857" y="79.1429" width="4.85714" height="4.85714" fill="#111111"/>
<rect x="44.1429" y="79.1429" width="4.85714" height="4.85714" fill="#111111"/>
<rect x="49" y="79.1429" width="4.85714" height="4.85714" fill="#111111"/>
<rect x="53.8571" y="79.1429" width="4.85714" height="4.85714" fill="#111111"/>
<rect x="58.7143" y="79.1429" width="4.85714" height="4.85714" fill="#111111"/>
<rect x="63.5714" y="79.1429" width="4.85714" height="4.85714" fill="#111111"/>
<rect x="68.4286" y="79.1429" width="4.85714" height="4.85714" fill="#111111"/>
<rect x="78.1429" y="74.2857" width="4.85714" height="4.85714" fill="#111111"/>
<rect x="73.2857" y="79.1429" width="4.85714" height="4.85714" fill="#111111"/>
<rect x="78.1429" y="69.4286" width="4.85714" height="4.85714" fill="#111111"/>
<rect x="79.7619" y="64.5714" width="4.85714" height="4.85714" fill="#111111"/>
<rect x="79.7619" y="59.7143" width="4.85714" height="4.85714" fill="#111111"/>
<rect x="78.1429" y="45.1429" width="4.85714" height="4.85714" fill="#111111"/>
<rect x="78.1429" y="50" width="4.85714" height="4.85714" fill="#111111"/>
<rect x="19.8571" y="50" width="4.85714" height="4.85714" fill="#874B14"/>
<rect x="44.1429" y="50" width="4.85714" height="4.85714" fill="#874B14"/>
<rect x="24.7143" y="50" width="4.85714" height="4.85714" fill="#874B14"/>
<rect x="49" y="50" width="4.85714" height="4.85714" fill="#874B14"/>
<rect x="29.5714" y="50" width="4.85714" height="4.85714" fill="#874B14"/>
<rect x="53.8571" y="50" width="4.85714" height="4.85714" fill="#874B14"/>
<rect x="34.4286" y="50" width="4.85714" height="4.85714" fill="#874B14"/>
<rect x="58.7143" y="50" width="4.85714" height="4.85714" fill="#874B14"/>
<rect x="68.4285" y="50" width="4.85714" height="4.85714" fill="#874B14"/>
<rect x="60.3333" y="64.5714" width="4.85714" height="4.85714" fill="#874B14"/>
<rect x="31.1905" y="64.5714" width="4.85714" height="4.85714" fill="#874B14"/>
<rect x="39.2857" y="50" width="4.85714" height="4.85714" fill="#874B14"/>
<rect x="63.5714" y="50" width="4.85714" height="4.85714" fill="#874B14"/>
<rect x="73.2857" y="50" width="4.85714" height="4.85714" fill="#874B14"/>
<rect x="65.1905" y="64.5714" width="4.85714" height="4.85714" fill="#874B14"/>
<rect x="36.0476" y="64.5714" width="4.85714" height="4.85714" fill="#874B14"/>
<rect x="32.8095" y="20.8571" width="4.85714" height="4.85714" fill="#DBC0A0"/>
<rect x="37.6667" y="20.8571" width="4.85714" height="4.85714" fill="#DBC0A0"/>
<rect x="42.5238" y="20.8571" width="4.85714" height="4.85714" fill="#DBC0A0"/>
<rect x="47.381" y="25.7143" width="4.85714" height="4.85714" fill="#DBC0A0"/>
<rect x="52.2381" y="25.7143" width="4.85714" height="4.85714" fill="#DBC0A0"/>
<rect x="52.2381" y="20.8571" width="4.85714" height="4.85714" fill="#DBC0A0"/>
<rect x="57.0952" y="20.8571" width="4.85714" height="4.85714" fill="#DBC0A0"/>
<rect x="61.9524" y="20.8571" width="4.85714" height="4.85714" fill="#DBC0A0"/>
<rect x="61.9524" y="25.7143" width="4.85714" height="4.85714" fill="#DBC0A0"/>
<rect x="57.0952" y="25.7143" width="4.85714" height="4.85714" fill="#DBC0A0"/>
<rect x="73.2857" y="30.5714" width="4.85714" height="4.85714" fill="#DBC0A0"/>
<rect x="73.2857" y="35.4286" width="4.85714" height="4.85714" fill="#DBC0A0"/>
<rect x="68.4285" y="30.5714" width="4.85714" height="4.85714" fill="#DBC0A0"/>
<rect x="68.4285" y="35.4286" width="4.85714" height="4.85714" fill="#DBC0A0"/>
<rect x="63.5714" y="30.5714" width="4.85714" height="4.85714" fill="#DBC0A0"/>
<rect x="63.5714" y="35.4286" width="4.85714" height="4.85714" fill="#DBC0A0"/>
<rect x="58.7143" y="35.4286" width="4.85714" height="4.85714" fill="#DBC0A0"/>
<rect x="53.8571" y="30.5714" width="4.85714" height="4.85714" fill="#DBC0A0"/>
<rect x="53.8571" y="35.4286" width="4.85714" height="4.85714" fill="#DBC0A0"/>
<rect x="49" y="30.5714" width="4.85714" height="4.85714" fill="#DBC0A0"/>
<rect x="49" y="35.4286" width="4.85714" height="4.85714" fill="#DBC0A0"/>
<rect x="44.1429" y="30.5714" width="4.85714" height="4.85714" fill="#DBC0A0"/>
<rect x="44.1429" y="35.4286" width="4.85714" height="4.85714" fill="#DBC0A0"/>
<rect x="24.7143" y="74.2857" width="4.85714" height="4.85714" fill="#DBC0A0"/>
<rect x="29.5714" y="74.2857" width="4.85714" height="4.85714" fill="#DBC0A0"/>
<rect x="34.4286" y="74.2857" width="4.85714" height="4.85714" fill="#DBC0A0"/>
<rect x="39.2857" y="74.2857" width="4.85714" height="4.85714" fill="#DBC0A0"/>
<rect x="44.1429" y="74.2857" width="4.85714" height="4.85714" fill="#DBC0A0"/>
<rect x="49" y="74.2857" width="4.85714" height="4.85714" fill="#DBC0A0"/>
<rect x="53.8571" y="74.2857" width="4.85714" height="4.85714" fill="#DBC0A0"/>
<rect x="58.7143" y="74.2857" width="4.85714" height="4.85714" fill="#DBC0A0"/>
<rect x="63.5714" y="74.2857" width="4.85714" height="4.85714" fill="#DBC0A0"/>
<rect x="68.4285" y="74.2857" width="4.85714" height="4.85714" fill="#DBC0A0"/>
<rect x="73.2857" y="74.2857" width="4.85714" height="4.85714" fill="#DBC0A0"/>
<rect x="73.2857" y="69.4286" width="4.85714" height="4.85714" fill="#DBC0A0"/>
<rect x="68.4285" y="69.4286" width="4.85714" height="4.85714" fill="#DBC0A0"/>
<rect x="58.7143" y="69.4286" width="4.85714" height="4.85714" fill="#DBC0A0"/>
<rect x="53.8571" y="69.4286" width="4.85714" height="4.85714" fill="#DBC0A0"/>
<rect x="49" y="69.4286" width="4.85714" height="4.85714" fill="#DBC0A0"/>
<rect x="44.1429" y="69.4286" width="4.85714" height="4.85714" fill="#DBC0A0"/>
<rect x="39.2857" y="69.4286" width="4.85714" height="4.85714" fill="#DBC0A0"/>
<rect x="34.4286" y="69.4286" width="4.85714" height="4.85714" fill="#DBC0A0"/>
<rect x="29.5714" y="69.4286" width="4.85714" height="4.85714" fill="#DBC0A0"/>
<rect x="24.7143" y="69.4286" width="4.85714" height="4.85714" fill="#DBC0A0"/>
<rect x="39.2857" y="35.4286" width="4.85714" height="4.85714" fill="#DBC0A0"/>
<rect x="34.4286" y="30.5714" width="4.85714" height="4.85714" fill="#DBC0A0"/>
<rect x="34.4286" y="35.4286" width="4.85714" height="4.85714" fill="#DBC0A0"/>
<rect x="29.5714" y="30.5714" width="4.85714" height="4.85714" fill="#DBC0A0"/>
<rect x="29.5714" y="35.4286" width="4.85714" height="4.85714" fill="#DBC0A0"/>
<rect x="24.7143" y="35.4286" width="4.85714" height="4.85714" fill="#DBC0A0"/>
<rect x="19.8571" y="30.5714" width="4.85714" height="4.85714" fill="#DBC0A0"/>
<rect x="19.8571" y="35.4286" width="4.85714" height="4.85714" fill="#DBC0A0"/>
<rect x="23.0952" y="25.7143" width="4.85714" height="4.85714" fill="#DBC0A0"/>
<rect x="27.9524" y="25.7143" width="4.85714" height="4.85714" fill="#DBC0A0"/>
<rect x="37.6667" y="25.7143" width="4.85714" height="4.85714" fill="#DBC0A0"/>
<rect x="42.5238" y="25.7143" width="4.85714" height="4.85714" fill="#DBC0A0"/>
<rect x="71.6667" y="25.7143" width="4.85714" height="4.85714" fill="#DBC0A0"/>
<rect x="29.5714" y="40.2857" width="4.85714" height="4.85714" fill="#FCEA4D"/>
<rect x="39.2857" y="40.2857" width="4.85714" height="4.85714" fill="#FCEA4D"/>
<rect x="49" y="40.2857" width="4.85714" height="4.85714" fill="#FCEA4D"/>
<rect x="58.7143" y="40.2857" width="4.85714" height="4.85714" fill="#FCEA4D"/>
<rect x="68.4286" y="40.2857" width="4.85714" height="4.85714" fill="#FCEA4D"/>
<rect x="24.7143" y="40.2857" width="4.85714" height="4.85714" fill="#FCEA4D"/>
<rect x="34.4286" y="40.2857" width="4.85714" height="4.85714" fill="#FCEA4D"/>
<rect x="44.1429" y="40.2857" width="4.85714" height="4.85714" fill="#FCEA4D"/>
<rect x="53.8571" y="40.2857" width="4.85714" height="4.85714" fill="#FCEA4D"/>
<rect x="63.5714" y="40.2857" width="4.85714" height="4.85714" fill="#FCEA4D"/>
<rect x="26.3333" y="59.7143" width="4.85714" height="4.85714" fill="#FCEA4D"/>
<rect x="36.0476" y="59.7143" width="4.85714" height="4.85714" fill="#FCEA4D"/>
<rect x="45.7619" y="59.7143" width="4.85714" height="4.85714" fill="#FCEA4D"/>
<rect x="55.4762" y="59.7143" width="4.85714" height="4.85714" fill="#FCEA4D"/>
<rect x="65.1905" y="59.7143" width="4.85714" height="4.85714" fill="#FCEA4D"/>
<rect x="70.0476" y="59.7143" width="4.85714" height="4.85714" fill="#FCEA4D"/>
<rect x="74.9048" y="59.7143" width="4.85714" height="4.85714" fill="#FCEA4D"/>
<rect x="63.5714" y="69.4286" width="4.85714" height="4.85714" fill="#FCEA4D"/>
<rect x="63.5714" y="64.5714" width="4.85714" height="4.85714" fill="#FCEA4D"/>
<rect x="21.4762" y="59.7143" width="4.85714" height="4.85714" fill="#FCEA4D"/>
<rect x="31.1905" y="59.7143" width="4.85714" height="4.85714" fill="#FCEA4D"/>
<rect x="40.9048" y="59.7143" width="4.85714" height="4.85714" fill="#FCEA4D"/>
<rect x="50.619" y="59.7143" width="4.85714" height="4.85714" fill="#FCEA4D"/>
<rect x="60.3333" y="59.7143" width="4.85714" height="4.85714" fill="#FCEA4D"/>
<rect x="21.4762" y="64.5714" width="4.85714" height="4.85714" fill="#CF3939"/>
<rect x="26.3333" y="64.5714" width="4.85714" height="4.85714" fill="#CF3939"/>
<rect x="40.9047" y="64.5714" width="4.85714" height="4.85714" fill="#CF3939"/>
<rect x="45.7619" y="64.5714" width="4.85714" height="4.85714" fill="#CF3939"/>
<rect x="50.619" y="64.5714" width="4.85714" height="4.85714" fill="#CF3939"/>
<rect x="55.4762" y="64.5714" width="4.85714" height="4.85714" fill="#CF3939"/>
<rect x="70.0476" y="64.5714" width="4.85714" height="4.85714" fill="#CF3939"/>
<rect x="74.9048" y="64.5714" width="4.85714" height="4.85714" fill="#CF3939"/>
<rect x="19.8571" y="45.1429" width="4.85714" height="4.85714" fill="#CF3939"/>
<rect x="24.7143" y="45.1429" width="4.85714" height="4.85714" fill="#CF3939"/>
<rect x="39.2857" y="45.1429" width="4.85714" height="4.85714" fill="#CF3939"/>
<rect x="49" y="45.1429" width="4.85714" height="4.85714" fill="#CF3939"/>
<rect x="44.1429" y="45.1429" width="4.85714" height="4.85714" fill="#CF3939"/>
<rect x="68.4285" y="45.1429" width="4.85714" height="4.85714" fill="#CF3939"/>
<rect x="73.2857" y="45.1429" width="4.85714" height="4.85714" fill="#CF3939"/>
<rect x="39.2857" y="30.5714" width="4.85714" height="4.85714" fill="#F4DFC7"/>
<rect x="32.8095" y="25.7143" width="4.85714" height="4.85714" fill="#F4DFC7"/>
<rect x="24.7143" y="30.5714" width="4.85714" height="4.85714" fill="#F4DFC7"/>
<rect x="47.381" y="20.8571" width="4.85714" height="4.85714" fill="#F4DFC7"/>
<rect x="58.7143" y="30.5714" width="4.85714" height="4.85714" fill="#F4DFC7"/>
<rect x="66.8095" y="25.7143" width="4.85714" height="4.85714" fill="#F4DFC7"/>
<rect x="29.5714" y="45.1429" width="4.85714" height="4.85714" fill="#79DB7D"/>
<rect x="34.4286" y="45.1429" width="4.85714" height="4.85714" fill="#79DB7D"/>
<rect x="53.8571" y="45.1429" width="4.85714" height="4.85714" fill="#79DB7D"/>
<rect x="58.7143" y="45.1429" width="4.85714" height="4.85714" fill="#79DB7D"/>
<rect x="63.5714" y="45.1429" width="4.85714" height="4.85714" fill="#79DB7D"/>
<rect x="73.2857" y="54.8571" width="4.85714" height="4.85714" fill="#79DB7D"/>
<rect x="68.4285" y="54.8571" width="4.85714" height="4.85714" fill="#79DB7D"/>
<rect x="63.5714" y="54.8571" width="4.85714" height="4.85714" fill="#79DB7D"/>
<rect x="58.7143" y="54.8571" width="4.85714" height="4.85714" fill="#79DB7D"/>
<rect x="53.8571" y="54.8571" width="4.85714" height="4.85714" fill="#79DB7D"/>
<rect x="49" y="54.8571" width="4.85714" height="4.85714" fill="#79DB7D"/>
<rect x="44.1429" y="54.8571" width="4.85714" height="4.85714" fill="#79DB7D"/>
<rect x="39.2857" y="54.8571" width="4.85714" height="4.85714" fill="#79DB7D"/>
<rect x="34.4286" y="54.8571" width="4.85714" height="4.85714" fill="#79DB7D"/>
<rect x="29.5714" y="54.8571" width="4.85714" height="4.85714" fill="#79DB7D"/>
<rect x="24.7143" y="54.8571" width="4.85714" height="4.85714" fill="#79DB7D"/>
<rect x="19.8571" y="54.8571" width="4.85714" height="4.85714" fill="#79DB7D"/>
</svg>
