<svg width="100" height="100" viewBox="0 0 100 100" fill="none" xmlns="http://www.w3.org/2000/svg">
<rect x="18" y="18" width="3" height="3" fill="#7E532B"/>
<rect x="21" y="15" width="3" height="3" fill="#7E532B"/>
<rect x="24" y="12" width="3" height="3" fill="#7E532B"/>
<rect x="25" y="9" width="3" height="3" fill="#7E532B"/>
<rect x="28" y="6" width="3" height="3" fill="#7E532B"/>
<rect x="31" y="6" width="3" height="3" fill="#7E532B"/>
<rect x="32" y="3" width="3" height="3" fill="#7E532B"/>
<rect x="35" y="3" width="3" height="3" fill="#7E532B"/>
<rect x="38" y="3" width="3" height="3" fill="#7E532B"/>
<rect x="41" y="3" width="3" height="3" fill="#7E532B"/>
<rect x="44" y="3" width="3" height="3" fill="#7E532B"/>
<rect x="61" y="6" width="3" height="3" fill="#7E532B"/>
<rect x="64" y="6" width="3" height="3" fill="#7E532B"/>
<rect x="64" y="9" width="3" height="3" fill="#7E532B"/>
<rect x="66" y="12" width="3" height="3" fill="#7E532B"/>
<rect x="69" y="15" width="3" height="3" fill="#7E532B"/>
<rect x="72" y="18" width="3" height="3" fill="#7E532B"/>
<rect x="72" y="21" width="3" height="3" fill="#7E532B"/>
<rect x="72" y="24" width="3" height="3" fill="#7E532B"/>
<rect x="72" y="27" width="3" height="3" fill="#7E532B"/>
<rect x="72" y="30" width="3" height="3" fill="#7E532B"/>
<rect x="72" y="33" width="3" height="3" fill="#7E532B"/>
<rect x="72" y="36" width="3" height="3" fill="#7E532B"/>
<rect x="73" y="36" width="3" height="3" fill="#7E532B"/>
<rect x="74" y="33" width="3" height="3" fill="#7E532B"/>
<rect x="74" y="30" width="3" height="3" fill="#7E532B"/>
<rect x="73" y="27" width="3" height="3" fill="#7E532B"/>
<rect x="72" y="39" width="3" height="3" fill="#7E532B"/>
<rect x="69" y="39" width="3" height="3" fill="#7E532B"/>
<rect x="66" y="36" width="3" height="3" fill="#7E532B"/>
<rect x="47" y="3" width="3" height="3" fill="#7E532B"/>
<rect x="18" y="21" width="3" height="3" fill="#7E532B"/>
<rect x="18" y="24" width="3" height="3" fill="#7E532B"/>
<rect x="18" y="27" width="3" height="3" fill="#7E532B"/>
<rect x="18" y="30" width="3" height="3" fill="#7E532B"/>
<rect x="18" y="33" width="3" height="3" fill="#7E532B"/>
<rect x="18" y="38" width="3" height="3" fill="#7E532B"/>
<rect x="21" y="42" width="3" height="3" fill="#7E532B"/>
<rect x="24" y="42" width="3" height="3" fill="#7E532B"/>
<rect x="18" y="41" width="3" height="3" fill="#7E532B"/>
<rect x="21" y="36" width="3" height="3" fill="#7E532B"/>
<rect x="24" y="39" width="3" height="3" fill="#7E532B"/>
<rect x="24" y="36" width="3" height="3" fill="#7E532B"/>
<rect x="21" y="33" width="3" height="3" fill="#7E532B"/>
<rect x="59" y="3" width="3" height="3" fill="#7E532B"/>
<rect x="56" y="3" width="3" height="3" fill="#7E532B"/>
<rect x="53" y="3" width="3" height="3" fill="#7E532B"/>
<rect x="21" y="30" width="3" height="3" fill="#7E532B"/>
<rect x="50" y="3" width="3" height="3" fill="#7E532B"/>
<rect x="27" y="33" width="3" height="3" fill="#9D6A3C"/>
<rect x="24" y="33" width="3" height="3" fill="#C6905E"/>
<rect x="24" y="30" width="3" height="3" fill="#C6905E"/>
<rect x="27" y="30" width="3" height="3" fill="#C6905E"/>
<rect x="30" y="30" width="3" height="3" fill="#9D6A3C"/>
<rect x="30" y="27" width="3" height="3" fill="#C6905E"/>
<rect x="27" y="27" width="3" height="3" fill="#C6905E"/>
<rect x="24" y="27" width="3" height="3" fill="#9D6A3C"/>
<rect x="21" y="27" width="3" height="3" fill="#C6905E"/>
<rect x="21" y="24" width="3" height="3" fill="#C6905E"/>
<rect x="21" y="21" width="3" height="3" fill="#C6905E"/>
<rect x="21" y="18" width="3" height="3" fill="#9D6A3C"/>
<rect x="24" y="24" width="3" height="3" fill="#9D6A3C"/>
<rect x="24" y="21" width="3" height="3" fill="#C6905E"/>
<rect x="24" y="18" width="3" height="3" fill="#C6905E"/>
<rect x="24" y="15" width="3" height="3" fill="#C6905E"/>
<rect x="27" y="24" width="3" height="3" fill="#C6905E"/>
<rect x="27" y="21" width="3" height="3" fill="#C6905E"/>
<rect x="27" y="18" width="3" height="3" fill="#C6905E"/>
<rect x="27" y="15" width="3" height="3" fill="#9D6A3C"/>
<rect x="27" y="12" width="3" height="3" fill="#C6905E"/>
<rect x="30" y="24" width="3" height="3" fill="#C6905E"/>
<rect x="30" y="21" width="3" height="3" fill="#9D6A3C"/>
<rect x="30" y="18" width="3" height="3" fill="#C6905E"/>
<rect x="30" y="15" width="3" height="3" fill="#C6905E"/>
<rect x="30" y="12" width="3" height="3" fill="#C6905E"/>
<rect x="33" y="24" width="3" height="3" fill="#C6905E"/>
<rect x="33" y="21" width="3" height="3" fill="#C6905E"/>
<rect x="33" y="18" width="3" height="3" fill="#C6905E"/>
<rect x="33" y="15" width="3" height="3" fill="#C6905E"/>
<rect x="33" y="12" width="3" height="3" fill="#C6905E"/>
<rect x="33" y="27" width="3" height="3" fill="#9D6A3C"/>
<rect x="36" y="27" width="3" height="3" fill="#9D6A3C"/>
<rect x="36" y="24" width="3" height="3" fill="#C6905E"/>
<rect x="36" y="21" width="3" height="3" fill="#C6905E"/>
<rect x="36" y="18" width="3" height="3" fill="#C6905E"/>
<rect x="36" y="15" width="3" height="3" fill="#C6905E"/>
<rect x="36" y="12" width="3" height="3" fill="#9D6A3C"/>
<rect x="39" y="21" width="3" height="3" fill="#9D6A3C"/>
<rect x="39" y="18" width="3" height="3" fill="#C6905E"/>
<rect x="39" y="15" width="3" height="3" fill="#C6905E"/>
<rect x="39" y="12" width="3" height="3" fill="#9D6A3C"/>
<rect x="40" y="9" width="3" height="3" fill="#C6905E"/>
<rect x="37" y="9" width="3" height="3" fill="#C6905E"/>
<rect x="34" y="9" width="3" height="3" fill="#C6905E"/>
<rect x="31" y="9" width="3" height="3" fill="#9D6A3C"/>
<rect x="28" y="9" width="3" height="3" fill="#C6905E"/>
<rect x="34" y="6" width="3" height="3" fill="#C6905E"/>
<rect x="37" y="6" width="3" height="3" fill="#C6905E"/>
<rect x="40" y="6" width="3" height="3" fill="#C6905E"/>
<rect x="43" y="6" width="3" height="3" fill="#9D6A3C"/>
<rect x="46" y="6" width="3" height="3" fill="#9D6A3C"/>
<rect x="49" y="6" width="3" height="3" fill="#C6905E"/>
<rect x="52" y="6" width="3" height="3" fill="#C6905E"/>
<rect x="55" y="6" width="3" height="3" fill="#C6905E"/>
<rect x="58" y="6" width="3" height="3" fill="#C6905E"/>
<rect x="39" y="27" width="3" height="3" fill="#9D6A3C"/>
<rect x="39" y="24" width="3" height="3" fill="#C6905E"/>
<rect x="42" y="21" width="3" height="3" fill="#C6905E"/>
<rect x="42" y="18" width="3" height="3" fill="#9D6A3C"/>
<rect x="42" y="15" width="3" height="3" fill="#9D6A3C"/>
<rect x="42" y="12" width="3" height="3" fill="#C6905E"/>
<rect x="43" y="9" width="3" height="3" fill="#C6905E"/>
<rect x="42" y="27" width="3" height="3" fill="#9D6A3C"/>
<rect x="42" y="24" width="3" height="3" fill="#C6905E"/>
<rect x="45" y="21" width="3" height="3" fill="#C6905E"/>
<rect x="45" y="18" width="3" height="3" fill="#C6905E"/>
<rect x="45" y="15" width="3" height="3" fill="#C6905E"/>
<rect x="45" y="12" width="3" height="3" fill="#C6905E"/>
<rect x="46" y="9" width="3" height="3" fill="#C6905E"/>
<rect x="45" y="27" width="3" height="3" fill="#C6905E"/>
<rect x="45" y="24" width="3" height="3" fill="#C6905E"/>
<rect x="48" y="21" width="3" height="3" fill="#C6905E"/>
<rect x="48" y="18" width="3" height="3" fill="#C6905E"/>
<rect x="48" y="15" width="3" height="3" fill="#C6905E"/>
<rect x="48" y="12" width="3" height="3" fill="#C6905E"/>
<rect x="49" y="9" width="3" height="3" fill="#9D6A3C"/>
<rect x="45" y="30" width="3" height="3" fill="#9D6A3C"/>
<rect x="42" y="30" width="3" height="3" fill="#9D6A3C"/>
<rect x="48" y="33" width="3" height="3" fill="#9D6A3C"/>
<rect x="48" y="30" width="3" height="3" fill="#9D6A3C"/>
<rect x="51" y="30" width="3" height="3" fill="#9D6A3C"/>
<rect x="48" y="27" width="3" height="3" fill="#9D6A3C"/>
<rect x="48" y="24" width="3" height="3" fill="#C6905E"/>
<rect x="51" y="21" width="3" height="3" fill="#9D6A3C"/>
<rect x="51" y="18" width="3" height="3" fill="#C6905E"/>
<rect x="51" y="15" width="3" height="3" fill="#9D6A3C"/>
<rect x="51" y="12" width="3" height="3" fill="#C6905E"/>
<rect x="52" y="9" width="3" height="3" fill="#C6905E"/>
<rect x="51" y="27" width="3" height="3" fill="#9D6A3C"/>
<rect x="51" y="24" width="3" height="3" fill="#C6905E"/>
<rect x="54" y="21" width="3" height="3" fill="#C6905E"/>
<rect x="54" y="18" width="3" height="3" fill="#C6905E"/>
<rect x="54" y="15" width="3" height="3" fill="#C6905E"/>
<rect x="54" y="12" width="3" height="3" fill="#9D6A3C"/>
<rect x="55" y="9" width="3" height="3" fill="#9D6A3C"/>
<rect x="54" y="27" width="3" height="3" fill="#C6905E"/>
<rect x="54" y="24" width="3" height="3" fill="#C6905E"/>
<rect x="57" y="21" width="3" height="3" fill="#C6905E"/>
<rect x="57" y="18" width="3" height="3" fill="#9D6A3C"/>
<rect x="57" y="15" width="3" height="3" fill="#C6905E"/>
<rect x="57" y="12" width="3" height="3" fill="#C6905E"/>
<rect x="58" y="9" width="3" height="3" fill="#9D6A3C"/>
<rect x="57" y="27" width="3" height="3" fill="#9D6A3C"/>
<rect x="57" y="24" width="3" height="3" fill="#C6905E"/>
<rect x="60" y="21" width="3" height="3" fill="#C6905E"/>
<rect x="60" y="18" width="3" height="3" fill="#C6905E"/>
<rect x="60" y="15" width="3" height="3" fill="#C6905E"/>
<rect x="60" y="12" width="3" height="3" fill="#C6905E"/>
<rect x="61" y="9" width="3" height="3" fill="#C6905E"/>
<rect x="60" y="27" width="3" height="3" fill="#9D6A3C"/>
<rect x="63" y="30" width="3" height="3" fill="#9D6A3C"/>
<rect x="66" y="33" width="3" height="3" fill="#9D6A3C"/>
<rect x="66" y="30" width="3" height="3" fill="#C6905E"/>
<rect x="69" y="33" width="3" height="3" fill="#C6905E"/>
<rect x="69" y="30" width="3" height="3" fill="#9D6A3C"/>
<rect x="69" y="27" width="3" height="3" fill="#C6905E"/>
<rect x="66" y="27" width="3" height="3" fill="#C6905E"/>
<rect x="63" y="12" width="3" height="3" fill="#C6905E"/>
<rect x="63" y="15" width="3" height="3" fill="#9D6A3C"/>
<rect x="63" y="18" width="3" height="3" fill="#C6905E"/>
<rect x="63" y="21" width="3" height="3" fill="#C6905E"/>
<rect x="63" y="24" width="3" height="3" fill="#C6905E"/>
<rect x="60" y="24" width="3" height="3" fill="#C6905E"/>
<rect x="63" y="27" width="3" height="3" fill="#C6905E"/>
<rect x="66" y="24" width="3" height="3" fill="#9D6A3C"/>
<rect x="66" y="21" width="3" height="3" fill="#C6905E"/>
<rect x="69" y="24" width="3" height="3" fill="#C6905E"/>
<rect x="69" y="21" width="3" height="3" fill="#C6905E"/>
<rect x="69" y="18" width="3" height="3" fill="#C6905E"/>
<rect x="66" y="18" width="3" height="3" fill="#9D6A3C"/>
<rect x="66" y="15" width="3" height="3" fill="#C6905E"/>
<rect x="39" y="36" width="3" height="3" fill="#111111"/>
<rect x="57" y="36" width="3" height="3" fill="#111111"/>
<rect x="39" y="39" width="3" height="3" fill="#111111"/>
<rect x="57" y="39" width="3" height="3" fill="#111111"/>
<rect x="36" y="36" width="3" height="3" fill="#111111"/>
<rect x="54" y="36" width="3" height="3" fill="#111111"/>
<rect x="36" y="39" width="3" height="3" fill="#111111"/>
<rect x="54" y="39" width="3" height="3" fill="#111111"/>
<rect x="42" y="48" width="3" height="3" fill="#111111"/>
<rect x="45" y="48" width="3" height="3" fill="#111111"/>
<rect x="48" y="48" width="3" height="3" fill="#111111"/>
<rect x="51" y="48" width="3" height="3" fill="#111111"/>
<rect x="39" y="30" width="3" height="3" fill="#FAE2D8"/>
<rect x="36" y="30" width="3" height="3" fill="#FAE2D8"/>
<rect x="33" y="30" width="3" height="3" fill="#FAE2D8"/>
<rect x="33" y="33" width="3" height="3" fill="#FAE2D8"/>
<rect x="30" y="33" width="3" height="3" fill="#FAE2D8"/>
<rect x="30" y="36" width="3" height="3" fill="#FAE2D8"/>
<rect x="30" y="39" width="3" height="3" fill="#FAE2D8"/>
<rect x="27" y="39" width="3" height="3" fill="#FAE2D8"/>
<rect x="27" y="42" width="3" height="3" fill="#FAE2D8"/>
<rect x="27" y="45" width="3" height="3" fill="#FAE2D8"/>
<rect x="30" y="48" width="3" height="3" fill="#FAE2D8"/>
<rect x="33" y="51" width="3" height="3" fill="#FAE2D8"/>
<rect x="36" y="54" width="3" height="3" fill="#FAE2D8"/>
<rect x="39" y="54" width="3" height="3" fill="#FAE2D8"/>
<rect x="42" y="54" width="3" height="3" fill="#FAE2D8"/>
<rect x="45" y="54" width="3" height="3" fill="#FAE2D8"/>
<rect x="48" y="54" width="3" height="3" fill="#FAE2D8"/>
<rect x="51" y="54" width="3" height="3" fill="#FAE2D8"/>
<rect x="54" y="54" width="3" height="3" fill="#FAE2D8"/>
<rect x="57" y="54" width="3" height="3" fill="#FAE2D8"/>
<rect x="60" y="51" width="3" height="3" fill="#FAE2D8"/>
<rect x="63" y="48" width="3" height="3" fill="#FAE2D8"/>
<rect x="66" y="45" width="3" height="3" fill="#FAE2D8"/>
<rect x="66" y="42" width="3" height="3" fill="#FAE2D8"/>
<rect x="63" y="42" width="3" height="3" fill="#FAE2D8"/>
<rect x="63" y="45" width="3" height="3" fill="#FAE2D8"/>
<rect x="48" y="42" width="3" height="3" fill="#FAE2D8"/>
<rect x="48" y="45" width="3" height="3" fill="#FAE2D8"/>
<rect x="48" y="51" width="3" height="3" fill="#FAE2D8"/>
<rect x="60" y="42" width="3" height="3" fill="#FAE2D8"/>
<rect x="60" y="45" width="3" height="3" fill="#FAE2D8"/>
<rect x="60" y="48" width="3" height="3" fill="#FAE2D8"/>
<rect x="45" y="42" width="3" height="3" fill="#FAE2D8"/>
<rect x="45" y="45" width="3" height="3" fill="#FAE2D8"/>
<rect x="45" y="51" width="3" height="3" fill="#FAE2D8"/>
<rect x="57" y="42" width="3" height="3" fill="#FAE2D8"/>
<rect x="57" y="45" width="3" height="3" fill="#FAE2D8"/>
<rect x="57" y="51" width="3" height="3" fill="#FAE2D8"/>
<rect x="57" y="48" width="3" height="3" fill="#FAE2D8"/>
<rect x="42" y="42" width="3" height="3" fill="#FAE2D8"/>
<rect x="42" y="45" width="3" height="3" fill="#FAE2D8"/>
<rect x="42" y="51" width="3" height="3" fill="#FAE2D8"/>
<rect x="54" y="42" width="3" height="3" fill="#FAE2D8"/>
<rect x="54" y="45" width="3" height="3" fill="#FAE2D8"/>
<rect x="54" y="51" width="3" height="3" fill="#FAE2D8"/>
<rect x="54" y="48" width="3" height="3" fill="#FAE2D8"/>
<rect x="39" y="42" width="3" height="3" fill="#FAE2D8"/>
<rect x="33" y="42" width="3" height="3" fill="#FAE2D8"/>
<rect x="33" y="45" width="3" height="3" fill="#FAE2D8"/>
<rect x="33" y="48" width="3" height="3" fill="#FAE2D8"/>
<rect x="39" y="45" width="3" height="3" fill="#FAE2D8"/>
<rect x="39" y="51" width="3" height="3" fill="#FAE2D8"/>
<rect x="39" y="48" width="3" height="3" fill="#FAE2D8"/>
<rect x="51" y="42" width="3" height="3" fill="#FAE2D8"/>
<rect x="51" y="45" width="3" height="3" fill="#FAE2D8"/>
<rect x="51" y="51" width="3" height="3" fill="#FAE2D8"/>
<rect x="36" y="42" width="3" height="3" fill="#FAE2D8"/>
<rect x="30" y="42" width="3" height="3" fill="#FAE2D8"/>
<rect x="30" y="45" width="3" height="3" fill="#FAE2D8"/>
<rect x="36" y="45" width="3" height="3" fill="#FAE2D8"/>
<rect x="36" y="51" width="3" height="3" fill="#FAE2D8"/>
<rect x="36" y="48" width="3" height="3" fill="#FAE2D8"/>
<rect x="36" y="33" width="3" height="3" fill="#FAE2D8"/>
<rect x="39" y="33" width="3" height="3" fill="#FAE2D8"/>
<rect x="42" y="33" width="3" height="3" fill="#FAE2D8"/>
<rect x="45" y="33" width="3" height="3" fill="#FAE2D8"/>
<rect x="51" y="33" width="3" height="3" fill="#FAE2D8"/>
<rect x="54" y="33" width="3" height="3" fill="#FAE2D8"/>
<rect x="57" y="33" width="3" height="3" fill="#FAE2D8"/>
<rect x="60" y="33" width="3" height="3" fill="#FAE2D8"/>
<rect x="63" y="33" width="3" height="3" fill="#FAE2D8"/>
<rect x="63" y="36" width="3" height="3" fill="#FAE2D8"/>
<rect x="60" y="36" width="3" height="3" fill="#FAE2D8"/>
<rect x="60" y="39" width="3" height="3" fill="#FAE2D8"/>
<rect x="63" y="39" width="3" height="3" fill="#FAE2D8"/>
<rect x="66" y="39" width="3" height="3" fill="#FAE2D8"/>
<rect x="69" y="36" width="3" height="3" fill="#FAE2D8"/>
<rect x="21" y="39" width="3" height="3" fill="#FAE2D8"/>
<rect x="51" y="36" width="3" height="3" fill="#FAE2D8"/>
<rect x="48" y="36" width="3" height="3" fill="#FAE2D8"/>
<rect x="45" y="36" width="3" height="3" fill="#FAE2D8"/>
<rect x="42" y="36" width="3" height="3" fill="#FAE2D8"/>
<rect x="33" y="36" width="3" height="3" fill="#FAE2D8"/>
<rect x="33" y="39" width="3" height="3" fill="#FAE2D8"/>
<rect x="42" y="39" width="3" height="3" fill="#FAE2D8"/>
<rect x="45" y="39" width="3" height="3" fill="#FAE2D8"/>
<rect x="48" y="39" width="3" height="3" fill="#FAE2D8"/>
<rect x="51" y="39" width="3" height="3" fill="#FAE2D8"/>
<rect x="54" y="30" width="3" height="3" fill="#FAE2D8"/>
<rect x="57" y="30" width="3" height="3" fill="#FAE2D8"/>
<rect x="60" y="30" width="3" height="3" fill="#FAE2D8"/>
<rect x="27" y="36" width="3" height="3" fill="#FAE2D8"/>
<rect x="33" y="54" width="3" height="3" fill="#111111"/>
<rect x="30" y="57" width="3" height="3" fill="#111111"/>
<rect x="33" y="57" width="3" height="3" fill="#111111"/>
<rect x="36" y="57" width="3" height="3" fill="#111111"/>
<rect x="42" y="57" width="3" height="3" fill="#111111"/>
<rect x="39" y="57" width="3" height="3" fill="#111111"/>
<rect x="44" y="57" width="3" height="3" fill="#111111"/>
<rect x="47" y="57" width="3" height="3" fill="#111111"/>
<rect x="50" y="57" width="3" height="3" fill="#111111"/>
<rect x="53" y="57" width="3" height="3" fill="#111111"/>
<rect x="56" y="57" width="3" height="3" fill="#111111"/>
<rect x="58" y="78" width="3" height="3" fill="#111111"/>
<rect x="34" y="78" width="3" height="3" fill="#111111"/>
<rect x="59" y="81" width="3" height="3" fill="#111111"/>
<rect x="32" y="81" width="3" height="3" fill="#111111"/>
<rect x="59" y="84" width="3" height="3" fill="#111111"/>
<rect x="32" y="84" width="3" height="3" fill="#111111"/>
<rect x="59" y="87" width="3" height="3" fill="#111111"/>
<rect x="32" y="87" width="3" height="3" fill="#111111"/>
<rect x="59" y="90" width="3" height="3" fill="#111111"/>
<rect x="32" y="90" width="3" height="3" fill="#111111"/>
<rect x="59" y="93" width="3" height="3" fill="#111111"/>
<rect x="32" y="93" width="3" height="3" fill="#111111"/>
<rect x="30" y="96" width="3" height="3" fill="#111111"/>
<rect x="33" y="96" width="3" height="3" fill="#111111"/>
<rect x="36" y="96" width="3" height="3" fill="#111111"/>
<rect x="39" y="96" width="3" height="3" fill="#111111"/>
<rect x="42" y="96" width="3" height="3" fill="#111111"/>
<rect x="49" y="96" width="3" height="3" fill="#111111"/>
<rect x="52" y="96" width="3" height="3" fill="#111111"/>
<rect x="55" y="96" width="3" height="3" fill="#111111"/>
<rect x="58" y="96" width="3" height="3" fill="#111111"/>
<rect x="61" y="96" width="3" height="3" fill="#111111"/>
<rect x="35" y="93" width="3" height="3" fill="#111111"/>
<rect x="38" y="93" width="3" height="3" fill="#111111"/>
<rect x="41" y="93" width="3" height="3" fill="#111111"/>
<rect x="41" y="90" width="3" height="3" fill="#111111"/>
<rect x="41" y="87" width="3" height="3" fill="#111111"/>
<rect x="41" y="84" width="3" height="3" fill="#111111"/>
<rect x="41" y="81" width="3" height="3" fill="#111111"/>
<rect x="43" y="78" width="3" height="3" fill="#111111"/>
<rect x="46" y="78" width="3" height="3" fill="#111111"/>
<rect x="49" y="78" width="3" height="3" fill="#111111"/>
<rect x="50" y="81" width="3" height="3" fill="#111111"/>
<rect x="50" y="84" width="3" height="3" fill="#111111"/>
<rect x="50" y="87" width="3" height="3" fill="#111111"/>
<rect x="50" y="90" width="3" height="3" fill="#111111"/>
<rect x="50" y="93" width="3" height="3" fill="#111111"/>
<rect x="53" y="93" width="3" height="3" fill="#111111"/>
<rect x="56" y="93" width="3" height="3" fill="#111111"/>
<rect x="59" y="57" width="3" height="3" fill="#111111"/>
<rect x="62" y="57" width="3" height="3" fill="#111111"/>
<rect x="63" y="54" width="3" height="3" fill="#111111"/>
<rect x="66" y="54" width="3" height="3" fill="#111111"/>
<rect x="30" y="54" width="3" height="3" fill="#111111"/>
<rect x="27" y="54" width="3" height="3" fill="#111111"/>
<rect x="60" y="54" width="3" height="3" fill="#111111"/>
<rect x="68" y="57" width="3" height="3" fill="#111111"/>
<rect x="70" y="60" width="3" height="3" fill="#111111"/>
<rect x="70" y="63" width="3" height="3" fill="#111111"/>
<rect x="70" y="66" width="3" height="3" fill="#111111"/>
<rect x="70" y="69" width="3" height="3" fill="#111111"/>
<rect x="70" y="72" width="3" height="3" fill="#111111"/>
<rect x="70" y="75" width="3" height="3" fill="#111111"/>
<rect x="67" y="78" width="3" height="3" fill="#111111"/>
<rect x="64" y="78" width="3" height="3" fill="#111111"/>
<rect x="61" y="75" width="3" height="3" fill="#111111"/>
<rect x="61" y="72" width="3" height="3" fill="#111111"/>
<rect x="61" y="69" width="3" height="3" fill="#111111"/>
<rect x="61" y="66" width="3" height="3" fill="#111111"/>
<rect x="61" y="63" width="3" height="3" fill="#111111"/>
<rect x="61" y="60" width="3" height="3" fill="#111111"/>
<rect x="24" y="57" width="3" height="3" fill="#111111"/>
<rect x="22" y="60" width="3" height="3" fill="#111111"/>
<rect x="22" y="63" width="3" height="3" fill="#111111"/>
<rect x="22" y="66" width="3" height="3" fill="#111111"/>
<rect x="22" y="69" width="3" height="3" fill="#111111"/>
<rect x="22" y="72" width="3" height="3" fill="#111111"/>
<rect x="22" y="75" width="3" height="3" fill="#111111"/>
<rect x="25" y="78" width="3" height="3" fill="#111111"/>
<rect x="28" y="78" width="3" height="3" fill="#111111"/>
<rect x="31" y="75" width="3" height="3" fill="#111111"/>
<rect x="31" y="72" width="3" height="3" fill="#111111"/>
<rect x="31" y="69" width="3" height="3" fill="#111111"/>
<rect x="31" y="66" width="3" height="3" fill="#111111"/>
<rect x="31" y="63" width="3" height="3" fill="#111111"/>
<rect x="31" y="60" width="3" height="3" fill="#111111"/>
<rect x="58" y="72" width="3" height="3" fill="#7E532B"/>
<rect x="55" y="72" width="3" height="3" fill="#7E532B"/>
<rect x="52" y="72" width="3" height="3" fill="#7E532B"/>
<rect x="49" y="72" width="3" height="3" fill="#7E532B"/>
<rect x="46" y="72" width="3" height="3" fill="#7E532B"/>
<rect x="43" y="72" width="3" height="3" fill="#7E532B"/>
<rect x="40" y="72" width="3" height="3" fill="#7E532B"/>
<rect x="37" y="72" width="3" height="3" fill="#7E532B"/>
<rect x="34" y="72" width="3" height="3" fill="#7E532B"/>
<rect x="37" y="78" width="3" height="3" fill="#74B3ED"/>
<rect x="52" y="78" width="3" height="3" fill="#74B3ED"/>
<rect x="53" y="81" width="3" height="3" fill="#74B3ED"/>
<rect x="53" y="84" width="3" height="3" fill="#74B3ED"/>
<rect x="53" y="87" width="3" height="3" fill="#74B3ED"/>
<rect x="53" y="90" width="3" height="3" fill="#74B3ED"/>
<rect x="40" y="78" width="3" height="3" fill="#74B3ED"/>
<rect x="55" y="78" width="3" height="3" fill="#74B3ED"/>
<rect x="58" y="75" width="3" height="3" fill="#74B3ED"/>
<rect x="55" y="75" width="3" height="3" fill="#74B3ED"/>
<rect x="52" y="75" width="3" height="3" fill="#74B3ED"/>
<rect x="49" y="75" width="3" height="3" fill="#74B3ED"/>
<rect x="46" y="75" width="3" height="3" fill="#74B3ED"/>
<rect x="43" y="75" width="3" height="3" fill="#74B3ED"/>
<rect x="40" y="75" width="3" height="3" fill="#74B3ED"/>
<rect x="37" y="75" width="3" height="3" fill="#74B3ED"/>
<rect x="34" y="75" width="3" height="3" fill="#74B3ED"/>
<rect x="56" y="81" width="3" height="3" fill="#74B3ED"/>
<rect x="56" y="84" width="3" height="3" fill="#74B3ED"/>
<rect x="56" y="87" width="3" height="3" fill="#74B3ED"/>
<rect x="56" y="90" width="3" height="3" fill="#74B3ED"/>
<rect x="38" y="81" width="3" height="3" fill="#74B3ED"/>
<rect x="38" y="84" width="3" height="3" fill="#74B3ED"/>
<rect x="38" y="87" width="3" height="3" fill="#74B3ED"/>
<rect x="38" y="90" width="3" height="3" fill="#74B3ED"/>
<rect x="35" y="81" width="3" height="3" fill="#74B3ED"/>
<rect x="35" y="84" width="3" height="3" fill="#74B3ED"/>
<rect x="35" y="87" width="3" height="3" fill="#74B3ED"/>
<rect x="35" y="90" width="3" height="3" fill="#74B3ED"/>
<rect x="27" y="57" width="3" height="3" fill="#23A428"/>
<rect x="28" y="60" width="3" height="3" fill="#23A428"/>
<rect x="28" y="63" width="3" height="3" fill="#23A428"/>
<rect x="28" y="66" width="3" height="3" fill="#23A428"/>
<rect x="28" y="69" width="3" height="3" fill="#23A428"/>
<rect x="28" y="72" width="3" height="3" fill="#23A428"/>
<rect x="28" y="75" width="3" height="3" fill="#23A428"/>
<rect x="67" y="75" width="3" height="3" fill="#23A428"/>
<rect x="67" y="72" width="3" height="3" fill="#23A428"/>
<rect x="67" y="69" width="3" height="3" fill="#23A428"/>
<rect x="67" y="66" width="3" height="3" fill="#23A428"/>
<rect x="67" y="63" width="3" height="3" fill="#23A428"/>
<rect x="67" y="60" width="3" height="3" fill="#23A428"/>
<rect x="25" y="60" width="3" height="3" fill="#23A428"/>
<rect x="34" y="60" width="3" height="3" fill="#23A428"/>
<rect x="37" y="60" width="3" height="3" fill="#23A428"/>
<rect x="40" y="60" width="3" height="3" fill="#23A428"/>
<rect x="43" y="60" width="3" height="3" fill="#23A428"/>
<rect x="46" y="60" width="3" height="3" fill="#23A428"/>
<rect x="49" y="60" width="3" height="3" fill="#23A428"/>
<rect x="52" y="60" width="3" height="3" fill="#23A428"/>
<rect x="55" y="60" width="3" height="3" fill="#23A428"/>
<rect x="58" y="60" width="3" height="3" fill="#23A428"/>
<rect x="34" y="63" width="3" height="3" fill="#23A428"/>
<rect x="37" y="63" width="3" height="3" fill="#23A428"/>
<rect x="40" y="63" width="3" height="3" fill="#23A428"/>
<rect x="43" y="63" width="3" height="3" fill="#23A428"/>
<rect x="46" y="63" width="3" height="3" fill="#23A428"/>
<rect x="49" y="63" width="3" height="3" fill="#23A428"/>
<rect x="52" y="63" width="3" height="3" fill="#23A428"/>
<rect x="55" y="63" width="3" height="3" fill="#23A428"/>
<rect x="58" y="63" width="3" height="3" fill="#23A428"/>
<rect x="34" y="66" width="3" height="3" fill="#23A428"/>
<rect x="37" y="66" width="3" height="3" fill="#23A428"/>
<rect x="40" y="66" width="3" height="3" fill="#23A428"/>
<rect x="43" y="66" width="3" height="3" fill="#23A428"/>
<rect x="46" y="66" width="3" height="3" fill="#23A428"/>
<rect x="49" y="66" width="3" height="3" fill="#23A428"/>
<rect x="52" y="66" width="3" height="3" fill="#23A428"/>
<rect x="55" y="66" width="3" height="3" fill="#23A428"/>
<rect x="58" y="66" width="3" height="3" fill="#23A428"/>
<rect x="34" y="69" width="3" height="3" fill="#23A428"/>
<rect x="37" y="69" width="3" height="3" fill="#23A428"/>
<rect x="40" y="69" width="3" height="3" fill="#23A428"/>
<rect x="43" y="69" width="3" height="3" fill="#23A428"/>
<rect x="46" y="69" width="3" height="3" fill="#23A428"/>
<rect x="49" y="69" width="3" height="3" fill="#23A428"/>
<rect x="52" y="69" width="3" height="3" fill="#23A428"/>
<rect x="55" y="69" width="3" height="3" fill="#23A428"/>
<rect x="58" y="69" width="3" height="3" fill="#23A428"/>
<rect x="25" y="63" width="3" height="3" fill="#23A428"/>
<rect x="25" y="66" width="3" height="3" fill="#23A428"/>
<rect x="25" y="69" width="3" height="3" fill="#23A428"/>
<rect x="25" y="72" width="3" height="3" fill="#23A428"/>
<rect x="25" y="75" width="3" height="3" fill="#23A428"/>
<rect x="64" y="75" width="3" height="3" fill="#23A428"/>
<rect x="64" y="72" width="3" height="3" fill="#23A428"/>
<rect x="64" y="69" width="3" height="3" fill="#23A428"/>
<rect x="64" y="66" width="3" height="3" fill="#23A428"/>
<rect x="64" y="63" width="3" height="3" fill="#23A428"/>
<rect x="64" y="60" width="3" height="3" fill="#23A428"/>
<rect x="65" y="57" width="3" height="3" fill="#23A428"/>
<path d="M35.9503 62.3975H36.9006V69.0497H40.7019V70H35.9503V62.3975ZM42.9446 64.2981H45.7955V65.2484H42.9446V64.2981ZM45.7955 65.2484H46.7459V67.1491H42.9446V69.0497H41.9943V65.2484H42.9446V66.1988H45.7955V65.2484ZM42.9446 69.0497H46.7459V70H42.9446V69.0497ZM48.0383 62.3975H48.9886V65.2484H49.9389V66.1988H48.9886V70H48.0383V62.3975ZM49.9389 65.2484V64.2981H51.8395V65.2484H49.9389ZM51.8395 65.2484H52.7898V70H51.8395V65.2484ZM55.0326 64.2981H57.8835V65.2484H55.0326V64.2981ZM57.8835 65.2484H58.8338V70H57.8835V69.0497H56.9332V68.0994H57.8835V65.2484ZM56.9332 69.0497V70H55.0326V69.0497H56.9332ZM55.0326 69.0497H54.0823V65.2484H55.0326V69.0497Z" fill="white"/>
</svg>
