<svg width="100" height="100" viewBox="0 0 100 100" fill="none" xmlns="http://www.w3.org/2000/svg">
<rect x="51.8333" y="12.18" width="4.18" height="4.18" fill="#E0EDE6"/>
<rect x="51.8333" y="14.9667" width="4.18" height="4.18" fill="#E0EDE6"/>
<rect x="47.6533" y="16.36" width="4.18" height="4.18" fill="#E0EDE6"/>
<rect x="43.4734" y="20.54" width="4.18" height="4.18" fill="#E0EDE6"/>
<rect x="40.6866" y="24.72" width="4.18" height="4.18" fill="#E0EDE6"/>
<rect x="56.0133" y="12.18" width="4.18" height="4.18" fill="#E0EDE6"/>
<rect x="60.1933" y="12.18" width="4.18" height="4.18" fill="#E0EDE6"/>
<rect x="64.3734" y="13.5733" width="4.18" height="4.18" fill="#E0EDE6"/>
<rect x="64.3734" y="12.18" width="4.18" height="4.18" fill="#E0EDE6"/>
<rect x="67.16" y="13.5733" width="4.18" height="4.18" fill="#E0EDE6"/>
<rect x="68.5534" y="17.7533" width="4.18" height="4.18" fill="#E0EDE6"/>
<rect x="71.34" y="17.7533" width="4.18" height="4.18" fill="#E0EDE6"/>
<rect x="72.7333" y="20.54" width="4.18" height="4.18" fill="#E0EDE6"/>
<rect x="74.1266" y="21.9333" width="4.18" height="4.18" fill="#E0EDE6"/>
<rect x="74.1266" y="27.5067" width="4.18" height="4.18" fill="#E0EDE6"/>
<rect x="74.1266" y="26.1133" width="4.18" height="4.18" fill="#E0EDE6"/>
<rect x="74.1266" y="30.2933" width="4.18" height="4.18" fill="#E0EDE6"/>
<rect x="74.1266" y="33.08" width="4.18" height="4.18" fill="#E0EDE6"/>
<rect x="74.1266" y="37.26" width="4.18" height="4.18" fill="#E0EDE6"/>
<rect x="74.1266" y="41.44" width="4.18" height="4.18" fill="#E0EDE6"/>
<rect x="74.1266" y="45.62" width="4.18" height="4.18" fill="#E0EDE6"/>
<rect x="72.7333" y="53.98" width="4.18" height="4.18" fill="#E0EDE6"/>
<rect x="71.34" y="58.16" width="4.18" height="4.18" fill="#E0EDE6"/>
<rect x="69.9467" y="60.9467" width="4.18" height="4.18" fill="#E0EDE6"/>
<rect x="68.5534" y="63.7333" width="4.18" height="4.18" fill="#E0EDE6"/>
<rect x="65.7667" y="65.1267" width="4.18" height="4.18" fill="#E0EDE6"/>
<rect x="64.3734" y="67.9133" width="4.18" height="4.18" fill="#E0EDE6"/>
<rect x="60.1933" y="72.0933" width="4.18" height="4.18" fill="#E0EDE6"/>
<rect x="56.0133" y="74.88" width="4.18" height="4.18" fill="#E0EDE6"/>
<rect x="51.8333" y="77.6667" width="4.18" height="4.18" fill="#E0EDE6"/>
<rect x="47.6533" y="79.06" width="4.18" height="4.18" fill="#E0EDE6"/>
<rect x="44.8667" y="81.8467" width="4.18" height="4.18" fill="#E0EDE6"/>
<rect x="39.2933" y="83.24" width="4.18" height="4.18" fill="#E0EDE6"/>
<rect x="30.9333" y="83.24" width="4.18" height="4.18" fill="#E0EDE6"/>
<rect x="26.7533" y="83.24" width="4.18" height="4.18" fill="#E0EDE6"/>
<rect x="23.9667" y="83.24" width="4.18" height="4.18" fill="#E0EDE6"/>
<rect x="25.36" y="79.06" width="4.18" height="4.18" fill="#E0EDE6"/>
<rect x="28.1467" y="79.06" width="4.18" height="4.18" fill="#E0EDE6"/>
<rect x="21.18" y="79.06" width="4.18" height="4.18" fill="#E0EDE6"/>
<rect x="21.18" y="74.88" width="4.18" height="4.18" fill="#E0EDE6"/>
<rect x="21.18" y="70.7" width="4.18" height="4.18" fill="#E0EDE6"/>
<rect x="21.18" y="66.52" width="4.18" height="4.18" fill="#E0EDE6"/>
<rect x="25.36" y="48.4067" width="4.18" height="4.18" fill="#D2D6B5"/>
<rect x="26.7533" y="44.2267" width="4.18" height="4.18" fill="#D2D6B5"/>
<rect x="29.54" y="44.2267" width="4.18" height="4.18" fill="#D2D6B5"/>
<rect x="29.54" y="40.0467" width="4.18" height="4.18" fill="#D2D6B5"/>
<rect x="30.9333" y="40.0467" width="4.18" height="4.18" fill="#D2D6B5"/>
<rect x="33.72" y="37.26" width="4.18" height="4.18" fill="#D2D6B5"/>
<rect x="30.9333" y="37.26" width="4.18" height="4.18" fill="#D2D6B5"/>
<rect x="36.5067" y="34.4733" width="4.18" height="4.18" fill="#D2D6B5"/>
<rect x="35.1133" y="33.08" width="4.18" height="4.18" fill="#D2D6B5"/>
<rect x="39.2933" y="30.2933" width="4.18" height="4.18" fill="#D2D6B5"/>
<rect x="36.5067" y="28.9" width="4.18" height="4.18" fill="#D2D6B5"/>
<rect x="40.6866" y="26.1133" width="4.18" height="4.18" fill="#D2D6B5"/>
<rect x="44.8667" y="26.1133" width="4.18" height="4.18" fill="#D2D6B5"/>
<rect x="47.6533" y="21.9333" width="4.18" height="4.18" fill="#D2D6B5"/>
<rect x="43.4734" y="21.9333" width="4.18" height="4.18" fill="#D2D6B5"/>
<rect x="47.6533" y="19.1467" width="4.18" height="4.18" fill="#D2D6B5"/>
<rect x="51.8334" y="19.1467" width="4.18" height="4.18" fill="#D2D6B5"/>
<rect x="56.0133" y="19.1467" width="4.18" height="4.18" fill="#D2D6B5"/>
<rect x="54.62" y="14.9667" width="4.18" height="4.18" fill="#D2D6B5"/>
<rect x="58.8" y="14.9667" width="4.18" height="4.18" fill="#D2D6B5"/>
<rect x="60.1934" y="16.36" width="4.18" height="4.18" fill="#D2D6B5"/>
<rect x="64.3734" y="16.36" width="4.18" height="4.18" fill="#D2D6B5"/>
<rect x="68.5533" y="19.1467" width="4.18" height="4.18" fill="#D2D6B5"/>
<rect x="71.34" y="23.3267" width="4.18" height="4.18" fill="#D2D6B5"/>
<rect x="71.34" y="27.5067" width="4.18" height="4.18" fill="#D2D6B5"/>
<rect x="72.7334" y="31.6867" width="4.18" height="4.18" fill="#D2D6B5"/>
<rect x="71.34" y="35.8667" width="4.18" height="4.18" fill="#D2D6B5"/>
<rect x="71.34" y="41.44" width="4.18" height="4.18" fill="#D2D6B5"/>
<rect x="69.9467" y="45.62" width="4.18" height="4.18" fill="#D2D6B5"/>
<rect x="71.34" y="49.8" width="4.18" height="4.18" fill="#D2D6B5"/>
<rect x="69.9467" y="52.5867" width="4.18" height="4.18" fill="#D2D6B5"/>
<rect x="69.9467" y="56.7667" width="4.18" height="4.18" fill="#D2D6B5"/>
<rect x="67.16" y="56.7667" width="4.18" height="4.18" fill="#D2D6B5"/>
<rect x="65.7667" y="60.9467" width="4.18" height="4.18" fill="#D2D6B5"/>
<rect x="62.98" y="60.9467" width="4.18" height="4.18" fill="#D2D6B5"/>
<rect x="61.5867" y="63.7333" width="4.18" height="4.18" fill="#D2D6B5"/>
<rect x="60.1934" y="67.9133" width="4.18" height="4.18" fill="#D2D6B5"/>
<rect x="56.0133" y="67.9133" width="4.18" height="4.18" fill="#D2D6B5"/>
<rect x="57.4067" y="70.7" width="4.18" height="4.18" fill="#D2D6B5"/>
<rect x="54.62" y="72.0933" width="4.18" height="4.18" fill="#D2D6B5"/>
<rect x="51.8334" y="73.4867" width="4.18" height="4.18" fill="#D2D6B5"/>
<rect x="49.0467" y="74.88" width="4.18" height="4.18" fill="#D2D6B5"/>
<rect x="44.8667" y="79.06" width="4.18" height="4.18" fill="#D2D6B5"/>
<rect x="42.08" y="80.4533" width="4.18" height="4.18" fill="#D2D6B5"/>
<rect x="39.2933" y="80.4533" width="4.18" height="4.18" fill="#D2D6B5"/>
<rect x="35.1133" y="79.06" width="4.18" height="4.18" fill="#D2D6B5"/>
<rect x="35.1133" y="83.24" width="4.18" height="4.18" fill="#D2D6B5"/>
<rect x="30.9333" y="79.06" width="4.18" height="4.18" fill="#D2D6B5"/>
<rect x="28.1467" y="77.6667" width="4.18" height="4.18" fill="#D2D6B5"/>
<rect x="25.36" y="74.88" width="4.18" height="4.18" fill="#D2D6B5"/>
<rect x="23.9667" y="72.0933" width="4.18" height="4.18" fill="#D2D6B5"/>
<rect x="22.5734" y="67.9133" width="4.18" height="4.18" fill="#D2D6B5"/>
<rect x="22.5734" y="63.7333" width="4.18" height="4.18" fill="#D2D6B5"/>
<rect x="51.8334" y="23.3267" width="4.18" height="4.18" fill="#909369"/>
<rect x="47.6533" y="26.1133" width="4.18" height="4.18" fill="#909369"/>
<rect x="43.4734" y="30.2933" width="4.18" height="4.18" fill="#909369"/>
<rect x="39.2933" y="34.4733" width="4.18" height="4.18" fill="#909369"/>
<rect x="36.5067" y="38.6534" width="4.18" height="4.18" fill="#909369"/>
<rect x="35.1133" y="41.44" width="4.18" height="4.18" fill="#909369"/>
<rect x="32.3267" y="44.2267" width="4.18" height="4.18" fill="#909369"/>
<rect x="29.54" y="48.4067" width="4.18" height="4.18" fill="#909369"/>
<rect x="23.9667" y="52.5867" width="4.18" height="4.18" fill="#909369"/>
<rect x="22.5734" y="56.7667" width="4.18" height="4.18" fill="#909369"/>
<rect x="22.5734" y="60.9467" width="4.18" height="4.18" fill="#909369"/>
<rect x="25.36" y="65.1267" width="4.18" height="4.18" fill="#909369"/>
<rect x="26.7533" y="69.3067" width="4.18" height="4.18" fill="#909369"/>
<rect x="30.9333" y="69.3067" width="4.18" height="4.18" fill="#909369"/>
<rect x="28.1467" y="73.4867" width="4.18" height="4.18" fill="#909369"/>
<rect x="32.3267" y="73.4867" width="4.18" height="4.18" fill="#909369"/>
<rect x="32.3267" y="76.2733" width="4.18" height="4.18" fill="#909369"/>
<rect x="36.5067" y="76.2733" width="4.18" height="4.18" fill="#909369"/>
<rect x="40.6866" y="76.2733" width="4.18" height="4.18" fill="#909369"/>
<rect x="44.8667" y="76.2733" width="4.18" height="4.18" fill="#909369"/>
<rect x="47.6533" y="72.0933" width="4.18" height="4.18" fill="#909369"/>
<rect x="51.8334" y="69.3067" width="4.18" height="4.18" fill="#909369"/>
<rect x="54.62" y="66.52" width="4.18" height="4.18" fill="#909369"/>
<rect x="57.4067" y="63.7333" width="4.18" height="4.18" fill="#909369"/>
<rect x="58.8" y="59.5533" width="4.18" height="4.18" fill="#909369"/>
<rect x="62.98" y="56.7667" width="4.18" height="4.18" fill="#909369"/>
<rect x="67.16" y="52.5867" width="4.18" height="4.18" fill="#909369"/>
<rect x="64.3734" y="24.72" width="4.18" height="4.18" fill="#E16C0C"/>
<rect x="67.16" y="27.5067" width="4.18" height="4.18" fill="#E9CCAA"/>
<rect x="47.6533" y="34.4733" width="4.18" height="4.18" fill="#E9CCAA"/>
<rect x="49.0467" y="38.6534" width="4.18" height="4.18" fill="#E9CCAA"/>
<rect x="51.8334" y="34.4733" width="4.18" height="4.18" fill="#E9CCAA"/>
<rect x="54.62" y="31.6867" width="4.18" height="4.18" fill="#E9CCAA"/>
<rect x="33.72" y="53.98" width="4.18" height="4.18" fill="#E9CCAA"/>
<rect x="32.3267" y="52.5867" width="4.18" height="4.18" fill="#E9CCAA"/>
<rect x="37.9" y="52.5867" width="4.18" height="4.18" fill="#E9CCAA"/>
<rect x="37.9" y="49.8" width="4.18" height="4.18" fill="#E9CCAA"/>
<rect x="33.72" y="48.4067" width="4.18" height="4.18" fill="#E9CCAA"/>
<rect x="35.1133" y="51.1933" width="4.18" height="4.18" fill="#E9CCAA"/>
<rect x="50.44" y="55.3733" width="4.18" height="4.18" fill="#E9CCAA"/>
<rect x="60.1934" y="51.1933" width="4.18" height="4.18" fill="#E9CCAA"/>
<rect x="62.98" y="33.08" width="4.18" height="4.18" fill="#EFB76D"/>
<rect x="46.26" y="41.44" width="4.18" height="4.18" fill="#EFB76D"/>
<rect x="50.44" y="47.0133" width="4.18" height="4.18" fill="#EFB76D"/>
<rect x="50.44" y="42.8333" width="4.18" height="4.18" fill="#EFB76D"/>
<rect x="50.44" y="41.44" width="4.18" height="4.18" fill="#EFB76D"/>
<rect x="54.62" y="45.62" width="4.18" height="4.18" fill="#EFB76D"/>
<rect x="54.62" y="47.0133" width="4.18" height="4.18" fill="#EFB76D"/>
<rect x="57.4067" y="47.0133" width="4.18" height="4.18" fill="#EFB76D"/>
<rect x="61.5867" y="47.0133" width="4.18" height="4.18" fill="#EFB76D"/>
<rect x="58.8" y="42.8333" width="4.18" height="4.18" fill="#EFB76D"/>
<rect x="54.62" y="41.44" width="4.18" height="4.18" fill="#EFB76D"/>
<rect x="51.8334" y="38.6534" width="4.18" height="4.18" fill="#EFB76D"/>
<rect x="37.9" y="65.1267" width="4.18" height="4.18" fill="#EFB76D"/>
<rect x="37.9" y="60.9467" width="4.18" height="4.18" fill="#EFB76D"/>
<rect x="35.1133" y="60.9467" width="4.18" height="4.18" fill="#EFB76D"/>
<rect x="33.72" y="58.16" width="4.18" height="4.18" fill="#EFB76D"/>
<rect x="37.9" y="56.7667" width="4.18" height="4.18" fill="#EFB76D"/>
<rect x="42.08" y="56.7667" width="4.18" height="4.18" fill="#EFB76D"/>
<rect x="42.08" y="52.5867" width="4.18" height="4.18" fill="#EFB76D"/>
<rect x="51.8334" y="30.2933" width="4.18" height="4.18" fill="#A2835C"/>
<rect x="46.26" y="65.1267" width="4.18" height="4.18" fill="#A2835C"/>
<rect x="49.0467" y="65.1267" width="4.18" height="4.18" fill="#A2835C"/>
<rect x="50.44" y="63.7333" width="4.18" height="4.18" fill="#A2835C"/>
<rect x="51.8334" y="63.7333" width="4.18" height="4.18" fill="#A2835C"/>
<rect x="54.62" y="59.5533" width="4.18" height="4.18" fill="#A2835C"/>
<rect x="57.4067" y="55.3733" width="4.18" height="4.18" fill="#A2835C"/>
<rect x="54.62" y="56.7667" width="4.18" height="4.18" fill="#A2835C"/>
<rect x="56.0133" y="35.8667" width="4.18" height="4.18" fill="#A2835C"/>
<rect x="56.0133" y="37.26" width="4.18" height="4.18" fill="#A2835C"/>
<rect x="58.8" y="38.6534" width="4.18" height="4.18" fill="#A2835C"/>
<rect x="58.8" y="33.08" width="4.18" height="4.18" fill="#A2835C"/>
<rect x="60.1934" y="35.8667" width="4.18" height="4.18" fill="#A2835C"/>
<rect x="62.98" y="37.26" width="4.18" height="4.18" fill="#A2835C"/>
<rect x="67.16" y="35.8667" width="4.18" height="4.18" fill="#A2835C"/>
<rect x="67.16" y="40.0467" width="4.18" height="4.18" fill="#A2835C"/>
<rect x="62.98" y="41.44" width="4.18" height="4.18" fill="#A2835C"/>
<rect x="64.3734" y="44.2267" width="4.18" height="4.18" fill="#A2835C"/>
<rect x="64.3734" y="48.4067" width="4.18" height="4.18" fill="#A2835C"/>
<rect x="29.54" y="56.7667" width="4.18" height="4.18" fill="#A2835C"/>
<rect x="30.9333" y="60.9467" width="4.18" height="4.18" fill="#A2835C"/>
<rect x="33.72" y="65.1267" width="4.18" height="4.18" fill="#A2835C"/>
<rect x="37.9" y="45.62" width="4.18" height="4.18" fill="#A2835C"/>
<rect x="42.08" y="41.44" width="4.18" height="4.18" fill="#A2835C"/>
<rect x="44.8667" y="37.26" width="4.18" height="4.18" fill="#A2835C"/>
<rect x="36.5067" y="69.3067" width="4.18" height="4.18" fill="#653A20"/>
<rect x="40.6866" y="69.3067" width="4.18" height="4.18" fill="#653A20"/>
<rect x="43.4734" y="69.3067" width="4.18" height="4.18" fill="#653A20"/>
<rect x="42.08" y="65.1267" width="4.18" height="4.18" fill="#653A20"/>
<rect x="46.26" y="60.9467" width="4.18" height="4.18" fill="#653A20"/>
<rect x="50.44" y="59.5533" width="4.18" height="4.18" fill="#653A20"/>
<rect x="67.16" y="31.6867" width="4.18" height="4.18" fill="#E16C0C"/>
<rect x="62.98" y="28.9" width="4.18" height="4.18" fill="#E16C0C"/>
<rect x="42.08" y="45.62" width="4.18" height="4.18" fill="#E16C0C"/>
<rect x="42.08" y="48.4067" width="4.18" height="4.18" fill="#E16C0C"/>
<rect x="46.26" y="48.4067" width="4.18" height="4.18" fill="#E16C0C"/>
<rect x="46.26" y="45.62" width="4.18" height="4.18" fill="#E16C0C"/>
<rect x="42.08" y="60.9467" width="4.18" height="4.18" fill="#E16C0C"/>
<rect x="46.26" y="56.7667" width="4.18" height="4.18" fill="#E16C0C"/>
<rect x="46.26" y="52.5867" width="4.18" height="4.18" fill="#E16C0C"/>
<rect x="50.44" y="51.1933" width="4.18" height="4.18" fill="#E16C0C"/>
<rect x="54.62" y="52.5867" width="4.18" height="4.18" fill="#E16C0C"/>
<rect x="54.62" y="51.1933" width="4.18" height="4.18" fill="#E16C0C"/>
<rect x="56.0133" y="51.1933" width="4.18" height="4.18" fill="#E16C0C"/>
<rect x="58.8" y="28.9" width="4.18" height="4.18" fill="#E16C0C"/>
<rect x="56.0133" y="27.5067" width="4.18" height="4.18" fill="#E16C0C"/>
<rect x="60.1934" y="24.72" width="4.18" height="4.18" fill="#E16C0C"/>
<rect x="61.5867" y="42.8333" width="4.18" height="4.18" fill="#E16C0C"/>
<rect x="61.5867" y="38.6534" width="4.18" height="4.18" fill="#E16C0C"/>
<rect x="56.0133" y="35.8667" width="4.18" height="4.18" fill="#E16C0C"/>
<rect x="60.1933" y="20.54" width="4.18" height="4.18" fill="#111111"/>
<rect x="56.0133" y="23.3267" width="4.18" height="4.18" fill="#111111"/>
<rect x="51.8333" y="26.1133" width="4.18" height="4.18" fill="#111111"/>
<rect x="47.6533" y="30.2933" width="4.18" height="4.18" fill="#111111"/>
<rect x="43.4733" y="33.08" width="4.18" height="4.18" fill="#111111"/>
<rect x="40.6866" y="37.26" width="4.18" height="4.18" fill="#111111"/>
<rect x="37.9" y="41.44" width="4.18" height="4.18" fill="#111111"/>
<rect x="33.72" y="44.2267" width="4.18" height="4.18" fill="#111111"/>
<rect x="30.9333" y="48.4067" width="4.18" height="4.18" fill="#111111"/>
<rect x="28.1466" y="52.5867" width="4.18" height="4.18" fill="#111111"/>
<rect x="25.36" y="56.7667" width="4.18" height="4.18" fill="#111111"/>
<rect x="26.7533" y="60.9467" width="4.18" height="4.18" fill="#111111"/>
<rect x="29.54" y="65.1267" width="4.18" height="4.18" fill="#111111"/>
<rect x="32.3267" y="69.3067" width="4.18" height="4.18" fill="#111111"/>
<rect x="35.1133" y="73.4867" width="4.18" height="4.18" fill="#111111"/>
<rect x="39.2933" y="73.4867" width="4.18" height="4.18" fill="#111111"/>
<rect x="43.4733" y="73.4867" width="4.18" height="4.18" fill="#111111"/>
<rect x="47.6533" y="69.3067" width="4.18" height="4.18" fill="#111111"/>
<rect x="51.8333" y="66.52" width="4.18" height="4.18" fill="#111111"/>
<rect x="56.0133" y="63.7333" width="4.18" height="4.18" fill="#111111"/>
<rect x="57.4066" y="59.5533" width="4.18" height="4.18" fill="#111111"/>
<rect x="60.1933" y="55.3733" width="4.18" height="4.18" fill="#111111"/>
<rect x="64.3733" y="52.5867" width="4.18" height="4.18" fill="#111111"/>
<rect x="67.16" y="48.4067" width="4.18" height="4.18" fill="#111111"/>
<rect x="68.5533" y="44.2267" width="4.18" height="4.18" fill="#111111"/>
<rect x="69.9467" y="40.0467" width="4.18" height="4.18" fill="#111111"/>
<rect x="69.9467" y="35.8667" width="4.18" height="4.18" fill="#111111"/>
<rect x="69.9467" y="31.6867" width="4.18" height="4.18" fill="#111111"/>
<rect x="69.9467" y="27.5067" width="4.18" height="4.18" fill="#111111"/>
<rect x="64.3733" y="20.54" width="4.18" height="4.18" fill="#111111"/>
<rect x="68.5533" y="23.3267" width="4.18" height="4.18" fill="#111111"/>
<rect x="57.4066" y="8" width="4.18" height="4.18" fill="#111111"/>
<rect x="61.5866" y="8" width="4.18" height="4.18" fill="#111111"/>
<rect x="65.7667" y="9.39333" width="4.18" height="4.18" fill="#111111"/>
<rect x="69.9467" y="13.5733" width="4.18" height="4.18" fill="#111111"/>
<rect x="74.1266" y="17.7533" width="4.18" height="4.18" fill="#111111"/>
<rect x="78.3066" y="21.9333" width="4.18" height="4.18" fill="#111111"/>
<rect x="78.3066" y="26.1133" width="4.18" height="4.18" fill="#111111"/>
<rect x="78.3066" y="30.2933" width="4.18" height="4.18" fill="#111111"/>
<rect x="78.3066" y="34.4733" width="4.18" height="4.18" fill="#111111"/>
<rect x="78.3066" y="38.6534" width="4.18" height="4.18" fill="#111111"/>
<rect x="78.3066" y="42.8333" width="4.18" height="4.18" fill="#111111"/>
<rect x="75.52" y="47.0133" width="4.18" height="4.18" fill="#111111"/>
<rect x="75.52" y="51.1933" width="4.18" height="4.18" fill="#111111"/>
<rect x="75.52" y="55.3733" width="4.18" height="4.18" fill="#111111"/>
<rect x="74.1266" y="59.5533" width="4.18" height="4.18" fill="#111111"/>
<rect x="72.7333" y="63.7333" width="4.18" height="4.18" fill="#111111"/>
<rect x="68.5533" y="67.9133" width="4.18" height="4.18" fill="#111111"/>
<rect x="64.3733" y="72.0933" width="4.18" height="4.18" fill="#111111"/>
<rect x="60.1933" y="76.2733" width="4.18" height="4.18" fill="#111111"/>
<rect x="56.0133" y="77.6667" width="4.18" height="4.18" fill="#111111"/>
<rect x="51.8333" y="79.06" width="4.18" height="4.18" fill="#111111"/>
<rect x="47.6533" y="81.8467" width="4.18" height="4.18" fill="#111111"/>
<rect x="43.4733" y="84.6333" width="4.18" height="4.18" fill="#111111"/>
<rect x="39.2933" y="87.42" width="4.18" height="4.18" fill="#111111"/>
<rect x="35.1133" y="87.42" width="4.18" height="4.18" fill="#111111"/>
<rect x="30.9333" y="87.42" width="4.18" height="4.18" fill="#111111"/>
<rect x="26.7533" y="87.42" width="4.18" height="4.18" fill="#111111"/>
<rect x="22.5733" y="87.42" width="4.18" height="4.18" fill="#111111"/>
<rect x="21.18" y="83.24" width="4.18" height="4.18" fill="#111111"/>
<rect x="17" y="79.06" width="4.18" height="4.18" fill="#111111"/>
<rect x="17" y="74.88" width="4.18" height="4.18" fill="#111111"/>
<rect x="17" y="70.7" width="4.18" height="4.18" fill="#111111"/>
<rect x="17" y="66.52" width="4.18" height="4.18" fill="#111111"/>
<rect x="18.3933" y="62.34" width="4.18" height="4.18" fill="#111111"/>
<rect x="18.3933" y="58.16" width="4.18" height="4.18" fill="#111111"/>
<rect x="19.7866" y="53.98" width="4.18" height="4.18" fill="#111111"/>
<rect x="21.18" y="49.8" width="4.18" height="4.18" fill="#111111"/>
<rect x="22.5733" y="45.62" width="4.18" height="4.18" fill="#111111"/>
<rect x="25.36" y="41.44" width="4.18" height="4.18" fill="#111111"/>
<rect x="26.7533" y="37.26" width="4.18" height="4.18" fill="#111111"/>
<rect x="30.9333" y="33.08" width="4.18" height="4.18" fill="#111111"/>
<rect x="33.72" y="28.9" width="4.18" height="4.18" fill="#111111"/>
<rect x="36.5067" y="24.72" width="4.18" height="4.18" fill="#111111"/>
<rect x="39.2933" y="20.54" width="4.18" height="4.18" fill="#111111"/>
<rect x="43.4733" y="16.36" width="4.18" height="4.18" fill="#111111"/>
<rect x="47.6533" y="12.18" width="4.18" height="4.18" fill="#111111"/>
<rect x="51.8333" y="8" width="4.18" height="4.18" fill="#111111"/>
<rect x="56.0133" y="8" width="4.18" height="4.18" fill="#111111"/>
</svg>
